<svg width="411" height="294" viewBox="0 0 411 294" fill="none" xmlns="http://www.w3.org/2000/svg">
<g clip-path="url(#clip0_3_457)">
<path d="M251.186 118.948C250.622 118.948 250.17 119.399 250.17 119.963V188.515C250.17 189.079 250.622 189.53 251.186 189.53H346.861C347.426 189.53 347.877 189.079 347.877 188.515V119.925C347.877 119.361 347.426 118.91 346.861 118.91H251.186V118.948Z" fill="#E6E6E6"/>
<path d="M341.552 125.077V173.811C341.552 174.488 340.987 175.052 340.309 175.052H257.474C257.399 175.052 257.361 175.052 257.286 175.052C256.684 174.977 256.232 174.451 256.232 173.849V125.077C256.232 124.4 256.797 123.836 257.474 123.836H340.309C340.987 123.836 341.552 124.4 341.552 125.077Z" fill="white"/>
<path d="M324.382 146.135C326.836 146.135 328.825 144.148 328.825 141.698C328.825 139.247 326.836 137.261 324.382 137.261C321.929 137.261 319.939 139.247 319.939 141.698C319.939 144.148 321.929 146.135 324.382 146.135Z" fill="#F1D00B"/>
<path d="M253.031 122.858C253.842 122.858 254.5 122.202 254.5 121.392C254.5 120.582 253.842 119.925 253.031 119.925C252.22 119.925 251.563 120.582 251.563 121.392C251.563 122.202 252.22 122.858 253.031 122.858Z" fill="#3F3D56"/>
<path d="M344.79 122.858C345.601 122.858 346.258 122.202 346.258 121.392C346.258 120.582 345.601 119.925 344.79 119.925C343.979 119.925 343.322 120.582 343.322 121.392C343.322 122.202 343.979 122.858 344.79 122.858Z" fill="#3F3D56"/>
<path d="M253.031 188.515C253.842 188.515 254.5 187.858 254.5 187.048C254.5 186.238 253.842 185.581 253.031 185.581C252.22 185.581 251.563 186.238 251.563 187.048C251.563 187.858 252.22 188.515 253.031 188.515Z" fill="#3F3D56"/>
<path d="M344.79 188.515C345.601 188.515 346.258 187.858 346.258 187.048C346.258 186.238 345.601 185.581 344.79 185.581C343.979 185.581 343.322 186.238 343.322 187.048C343.322 187.858 343.979 188.515 344.79 188.515Z" fill="#3F3D56"/>
<path d="M283.567 159.146C286.52 159.146 288.914 156.755 288.914 153.806C288.914 150.857 286.52 148.467 283.567 148.467C280.614 148.467 278.221 150.857 278.221 153.806C278.221 156.755 280.614 159.146 283.567 159.146Z" fill="#22335F"/>
<path d="M284.057 169.863H282.965L283.454 153.017L284.057 169.863Z" fill="#3F3D56"/>
<path d="M283.567 156.213L284.735 154.596L283.567 156.627L283.417 156.401L283.567 156.213Z" fill="#3F3D56"/>
<path d="M283.454 157.867L282.25 156.213L283.454 158.243L283.567 158.018L283.454 157.867Z" fill="#3F3D56"/>
<path d="M332.515 159.146C335.468 159.146 337.862 156.755 337.862 153.806C337.862 150.857 335.468 148.467 332.515 148.467C329.562 148.467 327.169 150.857 327.169 153.806C327.169 156.755 329.562 159.146 332.515 159.146Z" fill="#22335F"/>
<path d="M333.042 169.863H331.951L332.44 153.017L333.042 169.863Z" fill="#3F3D56"/>
<path d="M332.553 156.213L333.72 154.596L332.515 156.627L332.402 156.401L332.553 156.213Z" fill="#3F3D56"/>
<path d="M332.402 157.867L331.235 156.213L332.44 158.243L332.553 158.018L332.402 157.867Z" fill="#3F3D56"/>
<path d="M299.005 157.04C303.351 157.04 306.874 153.521 306.874 149.181C306.874 144.84 303.351 141.322 299.005 141.322C294.659 141.322 291.135 144.84 291.135 149.181C291.135 153.521 294.659 157.04 299.005 157.04Z" fill="#22335F"/>
<path d="M299.795 172.871H298.176L298.892 147.978L299.795 172.871Z" fill="#3F3D56"/>
<path d="M299.042 152.716L300.774 150.309L299.005 153.28L298.817 152.979L299.042 152.716Z" fill="#3F3D56"/>
<path d="M298.854 155.122L297.122 152.716L298.892 155.724L299.08 155.386L298.854 155.122Z" fill="#3F3D56"/>
<path d="M318.245 154.032C322.591 154.032 326.114 150.513 326.114 146.173C326.114 141.832 322.591 138.313 318.245 138.313C313.899 138.313 310.376 141.832 310.376 146.173C310.376 150.513 313.899 154.032 318.245 154.032Z" fill="#22335F"/>
<path d="M318.998 169.863H317.379L318.132 144.969L318.998 169.863Z" fill="#3F3D56"/>
<path d="M318.283 149.708L320.015 147.301L318.245 150.272L318.057 149.971L318.283 149.708Z" fill="#3F3D56"/>
<path d="M318.094 152.114L316.363 149.708L318.094 152.716L318.283 152.377L318.094 152.114Z" fill="#3F3D56"/>
<path d="M268.356 154.032C272.702 154.032 276.225 150.513 276.225 146.173C276.225 141.832 272.702 138.313 268.356 138.313C264.01 138.313 260.486 141.832 260.486 146.173C260.486 150.513 264.01 154.032 268.356 154.032Z" fill="#22335F"/>
<path d="M269.146 169.863H267.527L268.243 144.969L269.146 169.863Z" fill="#3F3D56"/>
<path d="M268.393 149.708L270.125 147.301L268.356 150.272L268.168 149.971L268.393 149.708Z" fill="#3F3D56"/>
<path d="M268.205 152.114L266.473 149.708L268.243 152.716L268.431 152.377L268.205 152.114Z" fill="#3F3D56"/>
<path d="M299.457 175.015H257.474C257.399 175.015 257.361 175.015 257.286 175.015C256.684 174.94 256.232 174.413 256.232 173.811V163.358C260.185 162.718 264.176 162.38 268.168 162.38C283.078 162.38 295.541 166.629 298.666 172.345C299.155 173.172 299.419 174.075 299.457 175.015Z" fill="#3F3D56"/>
<path d="M341.552 171.442V173.811C341.552 174.488 340.987 175.052 340.309 175.052H293.884C295.39 173.962 297.009 173.059 298.704 172.345C304.389 169.901 312.409 168.396 321.295 168.396C329.014 168.396 336.092 169.525 341.552 171.442Z" fill="#3F3D56"/>
<path d="M304.389 2C304.238 2 304.05 2.0376 303.937 2.11281L219.483 46.9741C218.994 47.2373 218.805 47.839 219.069 48.3278L251.299 108.87C251.563 109.359 252.165 109.547 252.655 109.283L337.109 64.4222C337.598 64.159 337.787 63.5573 337.523 63.0685L305.293 2.52645C305.18 2.30083 304.954 2.11281 304.69 2.0376C304.615 2 304.502 2 304.389 2Z" fill="#E6E6E6"/>
<path d="M302.168 10.0096L325.06 53.0282C325.361 53.6299 325.136 54.382 324.571 54.6828L251.412 93.5274C251.375 93.565 251.299 93.565 251.262 93.6027C250.697 93.7907 250.057 93.565 249.756 93.0386L226.825 50.0199C226.524 49.4183 226.75 48.6662 227.315 48.3654L300.473 9.52071C301.076 9.18228 301.829 9.4079 302.168 10.0096Z" fill="white"/>
<path d="M253.257 65.9639C259.205 65.9639 264.026 61.1489 264.026 55.2093C264.026 49.2696 259.205 44.4546 253.257 44.4546C247.31 44.4546 242.489 49.2696 242.489 55.2093C242.489 61.1489 247.31 65.9639 253.257 65.9639Z" fill="#F1D00B"/>
<path d="M298.704 68.6339L252.015 93.4147C251.939 93.4523 251.902 93.4899 251.826 93.4899L253.558 43.5522C253.596 42.5745 254.387 41.8224 255.366 41.86C255.667 41.86 256.006 41.9728 256.269 42.1232L284.735 59.8722L286.09 60.7371L298.704 68.6339Z" fill="#3F3D56"/>
<path opacity="0.2" d="M298.704 68.6338L282.777 77.1323L284.546 61.6019L284.659 60.4738L284.735 59.9474L286.09 60.7747L298.704 68.6338Z" fill="black"/>
<path d="M324.684 54.8332L284.32 76.2674L286.09 60.7746L286.203 59.6465L288.537 39.4533C288.688 38.1372 290.269 37.1971 291.512 37.6483C291.587 37.6859 291.663 37.7235 291.738 37.7612L324.684 54.8332Z" fill="#3F3D56"/>
<path d="M222.269 49.7567C223.08 49.7567 223.738 49.1001 223.738 48.2902C223.738 47.4802 223.08 46.8236 222.269 46.8236C221.458 46.8236 220.801 47.4802 220.801 48.2902C220.801 49.1001 221.458 49.7567 222.269 49.7567Z" fill="#3F3D56"/>
<path d="M303.259 6.73802C304.07 6.73802 304.728 6.08143 304.728 5.27148C304.728 4.46153 304.07 3.80493 303.259 3.80493C302.448 3.80493 301.791 4.46153 301.791 5.27148C301.791 6.08143 302.448 6.73802 303.259 6.73802Z" fill="#3F3D56"/>
<path d="M253.144 107.704C253.955 107.704 254.613 107.048 254.613 106.238C254.613 105.428 253.955 104.771 253.144 104.771C252.333 104.771 251.676 105.428 251.676 106.238C251.676 107.048 252.333 107.704 253.144 107.704Z" fill="#3F3D56"/>
<path d="M334.134 64.6854C334.945 64.6854 335.603 64.0288 335.603 63.2189C335.603 62.4089 334.945 61.7523 334.134 61.7523C333.323 61.7523 332.666 62.4089 332.666 63.2189C332.666 64.0288 333.323 64.6854 334.134 64.6854Z" fill="#3F3D56"/>
<path d="M324.834 292C325.361 292.15 325.926 291.812 326.077 291.286L343.736 224.99C343.886 224.464 343.547 223.9 343.02 223.749L250.584 199.194C250.057 199.044 249.492 199.382 249.341 199.908L231.682 266.204C231.532 266.73 231.871 267.294 232.398 267.407L324.834 292Z" fill="#E6E6E6"/>
<path d="M336.318 228.337L323.78 275.417C323.592 276.056 322.952 276.47 322.274 276.282L242.225 255.036C242.187 255.036 242.112 254.998 242.074 254.96C241.51 254.735 241.208 254.095 241.359 253.531L253.897 206.452C254.086 205.812 254.726 205.399 255.403 205.587L335.452 226.87C336.13 227.021 336.506 227.698 336.318 228.337Z" fill="white"/>
<path d="M325.55 268.761L323.78 275.454C323.592 276.094 322.952 276.507 322.274 276.319L242.225 255.036C242.187 255.036 242.112 254.998 242.074 254.96C241.51 254.735 241.208 254.095 241.359 253.531L243.129 246.838L325.55 268.761Z" fill="#3F3D56"/>
<path d="M277.069 261.71L289.804 265.094L290.192 263.641L277.456 260.257L277.069 261.71Z" fill="#CCCCCC"/>
<path d="M247.779 253.932L260.514 257.316L260.902 255.862L248.166 252.478L247.779 253.932Z" fill="#CCCCCC"/>
<path d="M306.359 269.489L319.094 272.873L319.481 271.419L306.746 268.035L306.359 269.489Z" fill="#CCCCCC"/>
<path d="M251.713 203.556C252.524 203.556 253.182 202.899 253.182 202.089C253.182 201.28 252.524 200.623 251.713 200.623C250.902 200.623 250.245 201.28 250.245 202.089C250.245 202.899 250.902 203.556 251.713 203.556Z" fill="#3F3D56"/>
<path d="M340.385 227.096C341.196 227.096 341.853 226.439 341.853 225.629C341.853 224.819 341.196 224.163 340.385 224.163C339.574 224.163 338.916 224.819 338.916 225.629C338.916 226.439 339.574 227.096 340.385 227.096Z" fill="#3F3D56"/>
<path d="M234.845 266.993C235.656 266.993 236.314 266.337 236.314 265.527C236.314 264.717 235.656 264.06 234.845 264.06C234.034 264.06 233.377 264.717 233.377 265.527C233.377 266.337 234.034 266.993 234.845 266.993Z" fill="#3F3D56"/>
<path d="M323.479 290.533C324.29 290.533 324.947 289.877 324.947 289.067C324.947 288.257 324.29 287.6 323.479 287.6C322.668 287.6 322.01 288.257 322.01 289.067C322.01 289.877 322.668 290.533 323.479 290.533Z" fill="#3F3D56"/>
<path d="M313.277 266.468L306.182 264.579L305.882 265.705L312.976 267.594L313.277 266.468Z" fill="#3F3D56"/>
<path d="M254.952 251.238L256.307 251.952L311.807 266.73L312.597 265.715C313.99 263.948 314.894 261.842 315.158 259.623C315.346 257.969 315.158 256.201 313.99 255.148L315.873 238.114L285.224 229.879L270.803 236.309C270.803 236.309 265.231 234.73 261.164 237.7C259.696 238.828 258.604 240.333 258.001 242.1L257.361 244.055L254.952 251.238Z" fill="#22335F"/>
<path d="M267.189 261.278C271.098 261.278 274.267 258.113 274.267 254.208C274.267 250.304 271.098 247.139 267.189 247.139C263.279 247.139 260.11 250.304 260.11 254.208C260.11 258.113 263.279 261.278 267.189 261.278Z" fill="#3F3D56"/>
<path d="M267.189 257.931C269.247 257.931 270.916 256.264 270.916 254.208C270.916 252.152 269.247 250.485 267.189 250.485C265.13 250.485 263.461 252.152 263.461 254.208C263.461 256.264 265.13 257.931 267.189 257.931Z" fill="#CCCCCC"/>
<path d="M301 270.265C304.91 270.265 308.079 267.1 308.079 263.195C308.079 259.291 304.91 256.126 301 256.126C297.091 256.126 293.922 259.291 293.922 263.195C293.922 267.1 297.091 270.265 301 270.265Z" fill="#3F3D56"/>
<path d="M301 266.918C303.059 266.918 304.728 265.252 304.728 263.196C304.728 261.14 303.059 259.473 301 259.473C298.942 259.473 297.273 261.14 297.273 263.196C297.273 265.252 298.942 266.918 301 266.918Z" fill="#CCCCCC"/>
<path d="M275.811 236.422L292.378 240.821L294.411 241.385L297.8 242.288L297.875 242.025L298.666 239.054L299.57 235.67L297.31 235.068L295.277 234.541L291.7 233.564L289.667 233.037L285.525 231.947L275.811 236.422Z" fill="white"/>
<path d="M300.511 243.002L309.284 245.334L309.736 243.604L310.526 240.633L311.054 238.715L309.773 238.377L307.74 237.851L302.281 236.384L300.511 243.002Z" fill="white"/>
<path d="M296.496 247.223L295.368 246.923L294.796 249.067L295.924 249.367L296.496 247.223Z" fill="#3F3D56"/>
<path d="M277.674 238.939L277.373 240.065L279.52 240.637L279.821 239.51L277.674 238.939Z" fill="#3F3D56"/>
<path d="M278.861 239.806L278.748 239.768C277.468 239.43 276.677 238.076 277.016 236.798C277.355 235.519 278.71 234.73 279.99 235.068L280.103 235.106L278.861 239.806Z" fill="#3F3D56"/>
<path d="M257.324 244.018C259.244 244.77 261.428 243.792 262.181 241.874C262.746 240.408 262.331 238.715 261.127 237.7C259.658 238.828 258.566 240.332 257.964 242.1L257.324 244.018Z" fill="#3F3D56"/>
<path d="M295.277 234.542L297.875 242.025L298.666 239.054L297.31 235.068L295.277 234.542Z" fill="#F2F2F2"/>
<path d="M307.74 237.851L309.736 243.604L310.526 240.633L309.773 238.377L307.74 237.851Z" fill="#F2F2F2"/>
<path d="M289.667 233.037L292.378 240.821L294.411 241.385L291.7 233.564L289.667 233.037Z" fill="#F2F2F2"/>
<path d="M78.0609 118.684C80.5563 118.684 82.5792 116.664 82.5792 114.172C82.5792 111.68 80.5563 109.659 78.0609 109.659C75.5656 109.659 73.5427 111.68 73.5427 114.172C73.5427 116.664 75.5656 118.684 78.0609 118.684Z" fill="#22335F"/>
<path opacity="0.2" d="M79.9812 110.073C81.8261 111.728 81.9768 114.586 80.2824 116.428C78.9646 117.895 76.8184 118.308 75.0111 117.481C76.856 119.173 79.7176 119.023 81.3743 117.18C83.0687 115.338 82.9181 112.48 81.0731 110.825C80.7719 110.524 80.3954 110.299 79.9812 110.073Z" fill="black"/>
<path d="M194.218 123.573C200.353 123.573 205.326 121.553 205.326 119.06C205.326 116.568 200.353 114.548 194.218 114.548C188.084 114.548 183.111 116.568 183.111 119.06C183.111 121.553 188.084 123.573 194.218 123.573Z" fill="#3F3D56"/>
<path opacity="0.2" d="M194.218 114.548C193.842 114.548 193.465 114.548 193.089 114.586C198.699 114.811 203.067 116.729 203.067 119.06C203.067 121.392 198.699 123.31 193.089 123.535C193.465 123.535 193.842 123.573 194.218 123.573C200.356 123.573 205.326 121.542 205.326 119.06C205.326 116.579 200.356 114.548 194.218 114.548Z" fill="black"/>
<path d="M208.714 119.06H152.989V113.044C152.989 112.404 152.5 111.916 151.859 111.916H120.985C120.344 111.916 119.855 112.404 119.855 113.044V119.06H87.474V115.3C87.474 114.661 86.9845 114.172 86.3444 114.172H69.7774C69.1373 114.172 68.6478 114.661 68.6478 115.3V119.06H64.1296C63.4895 119.06 63 119.549 63 120.188V194.268C63 194.907 63.4895 195.396 64.1296 195.396H208.714C209.355 195.396 209.844 194.907 209.844 194.268V120.188C209.844 119.587 209.355 119.06 208.714 119.06Z" fill="#3F3D56"/>
<path opacity="0.2" d="M208.714 189.868H64.1296C63.4895 189.868 63 189.379 63 188.74V194.005C63 194.644 63.4895 195.133 64.1296 195.133H208.714C209.355 195.133 209.844 194.644 209.844 194.005V188.74C209.844 189.379 209.355 189.868 208.714 189.868Z" fill="black"/>
<path opacity="0.2" d="M209.844 153.656H63V167.945H209.844V153.656Z" fill="black"/>
<path opacity="0.2" d="M209.844 146.511H63V160.801H209.844V146.511Z" fill="black"/>
<path d="M209.844 149.896H63V164.185H209.844V149.896Z" fill="#22335F"/>
<path d="M136.422 185.619C152.226 185.619 165.038 172.824 165.038 157.04C165.038 141.256 152.226 128.461 136.422 128.461C120.618 128.461 107.806 141.256 107.806 157.04C107.806 172.824 120.618 185.619 136.422 185.619Z" fill="#22335F"/>
<path opacity="0.2" d="M158.486 138.802C166.469 152.415 161.913 169.938 148.283 177.91C136.196 185.017 120.721 182.272 111.76 171.48C119.742 185.093 137.288 189.643 150.918 181.671C164.548 173.699 169.104 156.175 161.122 142.563C160.331 141.247 159.465 140.006 158.486 138.802Z" fill="black"/>
<path d="M136.422 178.324C148.192 178.324 157.733 168.795 157.733 157.04C157.733 145.286 148.192 135.756 136.422 135.756C124.652 135.756 115.111 145.286 115.111 157.04C115.111 168.795 124.652 178.324 136.422 178.324Z" fill="#3F3D56"/>
<path d="M152.989 157.04C152.989 159.296 152.537 161.515 151.634 163.583C151.144 164.711 150.542 165.764 149.826 166.742C144.48 174.15 134.125 175.842 126.708 170.502C119.29 165.163 117.596 154.822 122.943 147.414C123.997 145.985 125.239 144.706 126.708 143.653C127.687 142.939 128.741 142.337 129.871 141.848C138.267 138.238 148.019 142.112 151.634 150.535C152.537 152.565 152.989 154.784 152.989 157.04Z" fill="white"/>
<path opacity="0.2" d="M152.801 154.634C152.198 150.422 149.977 146.624 146.626 143.992C149.563 148.617 150.052 154.408 147.868 159.409C147.379 160.537 146.776 161.59 146.061 162.568C140.714 169.976 130.36 171.668 122.943 166.328C122.754 166.216 122.604 166.065 122.415 165.952C127.348 173.661 137.552 175.917 145.27 171.029C147.04 169.901 148.584 168.434 149.789 166.742C150.504 165.764 151.106 164.711 151.596 163.583C152.876 160.763 153.253 157.679 152.801 154.634Z" fill="black"/>
</g>
<defs>
<clipPath id="clip0_3_457">
<rect width="284.84" height="290" fill="white" transform="translate(63 2)"/>
</clipPath>
</defs>
</svg>
