<svg width="411" height="294" viewBox="0 0 411 294" fill="none" xmlns="http://www.w3.org/2000/svg">
<g clip-path="url(#clip0_3_456)">
<path d="M378.732 72.5092C332.178 10.8261 233.877 -14.1922 137.214 12.7506C86.0943 26.9851 36.8218 55.5206 12.3947 110.8C-31.2676 209.579 60.4127 241.101 120.348 251.154C149.34 256.032 176.625 264.195 201.575 275.31C246.456 295.318 325.871 313.037 385.771 229.72C429.19 169.331 409.711 113.554 378.732 72.5092Z" fill="white"/>
<path d="M108.919 84.6866C108.779 83.6911 108.535 82.7621 108.152 81.833C108.047 81.468 107.803 81.2026 107.455 81.0367C107.246 80.9703 107.002 80.9703 106.758 81.0367L103.239 81.5344C102.96 81.5344 102.646 81.6671 102.437 81.833C101.984 82.2975 102.437 83.0275 102.402 83.658C102.402 84.3548 101.74 84.952 101.008 85.1511C100.277 85.2838 99.5101 85.2838 98.7783 85.1179L93.865 84.3879C95.3286 83.9566 96.6179 83.1271 97.5936 82.0321C98.2556 81.3021 98.5693 79.9417 97.6632 79.6099C97.3845 79.5435 97.1057 79.5104 96.8269 79.5435C94.5968 79.5435 92.8545 77.785 90.7637 77.055C88.0109 76.1259 84.9792 76.9886 83.2021 79.2117L85.8156 79.3445C86.0595 79.3445 86.3034 79.3776 86.5125 79.5104C87.07 79.9749 86.3731 80.8376 86.4428 81.5344C86.5473 82.4635 87.8366 82.6294 88.7775 82.7289C89.7183 82.8284 90.9379 83.5584 90.4849 84.3548C85.6762 85.9474 80.7629 81.2689 75.6753 81.833C74.386 81.9657 73.1664 82.4634 71.9468 82.7621C64.2806 84.6202 56.4054 79.6763 48.565 80.7381C46.8227 81.0035 45.1152 81.4348 43.4775 82.0321C42.3972 82.3639 41.317 82.7289 40.5155 83.4921C39.7141 84.2552 39.4353 85.5824 40.1671 86.3788C38.146 86.5447 36.1249 86.3456 34.1735 85.8479C35.2538 86.412 35.9158 87.5069 35.9158 88.6683C32.7797 89.166 29.7132 90.0619 26.7861 91.3227C27.3437 92.1854 27.9709 92.9818 28.6678 93.7117L24.6954 96.1671C26.0544 96.4989 26.7513 98.2243 25.9498 99.3193C27.3437 98.722 28.2148 97.1957 29.7132 96.8971C30.6889 96.698 31.6995 97.063 32.6055 97.428C33.5115 97.793 34.5568 98.1248 35.5325 97.8593C36.5082 97.5939 37.2051 96.3994 36.5779 95.6362C40.6898 94.5081 44.941 93.8776 49.2271 93.7449C49.5407 93.7117 49.8892 93.7781 50.1679 93.9108C50.7255 94.2758 50.5861 95.0721 50.5512 95.7026C50.5164 96.333 51.0391 97.1957 51.6663 96.8971C50.9694 97.4943 51.5618 98.5893 52.2587 99.2197C52.9556 99.8502 53.7571 100.68 53.3389 101.509C53.2344 101.708 53.0602 101.874 52.9556 102.106C52.642 102.737 53.1298 103.467 53.7222 103.865C54.3146 104.263 55.0115 104.562 55.4297 105.159C55.8478 105.756 55.6388 106.752 54.9418 106.818L52.8859 104.33C52.189 105.026 51.7012 105.889 51.4921 106.818C53.6525 108.51 54.001 111.961 52.189 113.985C51.2482 115.014 49.924 115.644 48.7741 116.474C47.6242 117.303 46.5439 118.431 46.5439 119.792C46.5439 122.148 46.3348 124.338 47.2757 126.528C48.9832 130.576 50.9694 134.491 53.1995 138.274C53.7919 139.269 54.5585 140.364 55.7433 140.53C54.2449 137.046 52.8859 133.529 51.7012 129.945C52.4678 129.945 53.3738 130.011 53.8616 130.609C54.2449 131.106 54.1752 131.803 54.2798 132.401C54.4192 132.998 54.6631 133.562 55.0115 134.06L62.155 146.204C62.7474 147.199 63.4443 148.294 64.5594 148.692C65.2912 148.958 66.1275 148.891 66.7895 149.29C67.3122 149.588 67.6607 150.119 68.1834 150.384C69.6818 151.181 71.7725 149.655 73.2012 150.617C73.6194 150.882 73.8633 151.314 74.2466 151.612C75.5359 152.674 77.6964 151.977 79.1948 152.773C80.1705 153.304 80.6583 154.333 81.181 155.262C82.4703 157.618 84.5611 159.907 87.3488 160.073C88.2199 160.14 89.1259 159.974 89.9622 160.173C90.7986 160.372 91.6349 161.069 91.5303 161.898C91.2864 163.292 92.0182 164.851 91.8439 166.278C91.4955 168.866 87.6624 169.994 87.3139 172.549C87.2442 173.113 87.3488 173.711 87.2094 174.241C87.0352 174.905 86.5125 175.469 86.3034 176.133C85.9549 177.394 86.8958 178.688 87.9412 179.55C88.9866 180.413 90.241 181.143 90.8334 182.338C91.4258 183.598 91.147 185.092 91.3561 186.485C91.7742 189.505 94.5271 191.728 97.3496 193.188C98.2208 193.619 99.1268 194.05 99.6843 194.814C100.416 195.809 100.346 197.136 100.59 198.298C101.183 201.217 103.761 203.606 103.831 206.593C103.866 208.716 102.646 210.608 101.914 212.598C100.521 216.447 100.974 220.695 103.134 224.212C103.692 225.108 104.354 225.937 104.737 226.899C105.434 228.625 105.19 230.549 105.852 232.275C106.688 234.564 109.023 236.455 108.814 238.878C109.859 240.968 112.194 241.997 114.564 242.627L118.78 243.755C119.581 243.954 120.418 244.187 121.254 244.021C122.09 243.855 122.857 243.224 122.822 242.428C120.766 241.997 118.641 241.499 116.933 240.304C115.226 239.11 114.076 236.986 114.703 235.062C115.017 234.166 115.644 233.137 115.017 232.407C114.668 231.976 114.041 231.876 113.658 231.478C113.065 230.881 113.274 229.886 113.692 229.156C114.111 228.426 114.773 227.795 114.947 226.966C115.121 226.037 114.668 225.074 113.832 224.61C114.598 224.344 115.33 223.913 115.923 223.349C116.48 222.752 116.724 221.823 116.306 221.159C117.595 221.325 119.094 221.391 119.93 220.462C120.592 219.732 120.557 218.604 120.278 217.675C120 216.746 119.581 215.817 119.547 214.822C122.509 214.954 125.436 214.855 128.398 214.523C127.979 213.163 127.004 212.001 125.714 211.304C127.039 211.105 128.258 209.579 128.676 208.351C129.094 207.124 128.99 205.796 128.746 204.536C128.641 204.204 128.641 203.872 128.711 203.54C128.851 203.076 129.338 202.81 129.757 202.578L136.342 198.961C136.726 198.762 137.109 198.53 137.388 198.231C138.085 197.468 137.98 196.307 137.632 195.344C137.283 194.382 136.726 193.486 136.586 192.491C136.168 189.471 139.548 187.315 140.698 184.494C141.151 183.399 141.221 182.172 141.326 180.977C141.43 179.716 141.43 178.223 140.385 177.394C139.409 176.597 137.841 176.796 136.83 176.033C135.889 175.37 135.541 174.042 134.531 173.511C133.59 173.014 132.405 173.346 131.359 173.113C129.513 172.715 128.363 170.691 126.481 170.492C125.436 170.392 124.216 170.89 123.345 170.293C122.578 169.762 122.543 168.733 122.404 167.838C121.881 165.017 119.581 162.827 116.62 162.33C115.539 162.164 114.355 162.23 113.414 161.666C112.473 161.102 112.055 160.007 111.288 159.211C110.103 157.917 108.222 157.452 106.479 157.054L99.3359 155.461C98.0814 155.163 96.4436 155.03 95.7467 156.092C95.5376 156.49 95.3983 156.921 95.3286 157.352C94.8059 158.978 93.2378 160.106 91.4606 160.14C90.8682 159.177 89.8926 158.447 88.7426 158.149C88.0109 157.95 87.2442 157.95 86.5473 157.651C85.0141 156.954 84.3869 155.196 85.1186 153.736C85.1535 153.703 85.1535 153.636 85.1883 153.603C86.0246 152.176 85.7807 150.384 84.5262 149.223C83.3066 148.195 81.5643 147.929 79.9266 148.029C79.5084 147.133 80.2053 146.137 80.9719 145.507C81.7386 144.876 82.6794 144.213 82.8536 143.251C83.1324 141.724 81.0765 140.596 79.5432 141.028C78.01 141.459 77.0343 142.919 76.3722 144.312C75.9889 145.109 75.6753 145.971 75.0829 146.635C74.4906 147.299 73.5497 147.796 72.6437 147.597C71.3892 147.299 70.9014 145.839 70.6226 144.644C70.2393 143.018 69.856 141.359 69.9605 139.7C70.0651 138.041 70.6226 136.316 71.9119 135.188C74.0027 133.33 77.2434 133.529 80.1008 133.827C79.4387 133.097 79.5781 131.903 80.3099 131.206C81.0765 130.542 82.1567 130.31 83.1324 130.542C84.0036 130.708 84.7702 131.14 85.3277 131.803C86.1292 132.732 86.3731 133.993 86.9655 135.088C87.5579 136.183 88.9517 137.046 90.0668 136.482C91.0425 135.984 91.1819 134.69 90.9379 133.695C90.694 132.699 90.1713 131.671 90.2759 130.642C90.4501 128.651 92.6106 127.457 94.5271 126.627C96.4436 125.798 98.6389 124.703 98.9526 122.712C98.9526 122.314 99.0571 121.949 99.1965 121.584C99.4056 121.252 99.7192 120.986 100.068 120.82C105.643 117.303 111.358 113.753 117.735 111.828C118.083 111.729 118.118 111.828 118.432 111.762C118.919 111.497 118.606 110.767 118.153 110.501C117.7 110.236 117.107 110.003 116.968 109.473C116.898 109.108 117.107 108.743 117.177 108.344C117.316 107.415 116.167 106.553 115.261 106.918C114.738 106.254 115.748 105.524 116.585 105.292C119.059 104.661 121.568 104.263 124.146 104.13C124.425 104.097 124.739 104.131 125.017 104.263C125.436 104.562 125.401 105.192 125.087 105.59C124.774 105.989 124.321 106.254 123.937 106.586C123.101 107.382 122.787 108.544 123.136 109.605C124.46 110.236 125.924 110.899 127.387 110.7C128.851 110.501 130.175 108.909 129.478 107.648C128.816 106.486 126.899 106.221 126.551 104.927C126.167 103.434 128.398 102.073 127.91 100.613C127.701 99.9829 127.004 99.5847 126.481 99.1202C125.227 97.9589 124.843 96.1671 125.54 94.6076C123.833 94.9062 122.056 94.3753 120.836 93.214C119.721 92.1191 118.815 90.4268 117.212 90.46C115.748 90.4932 114.494 92.1522 113.1 91.6545C112.752 91.5218 112.403 91.2895 112.09 91.4223C111.88 91.555 111.741 91.7872 111.706 92.0195C111.358 93.6122 111.95 95.404 111.044 96.7975C110.068 98.2907 107.769 98.4898 106.549 99.8502C105.887 100.58 105.643 101.576 105.051 102.339C104.458 103.102 103.169 103.6 102.472 102.936C103.204 101.509 102.786 99.7838 101.496 98.8216C100.834 98.4234 100.102 98.0584 99.3707 97.8261C98.5344 97.4943 97.7329 97.063 96.9663 96.5653C96.583 96.3662 96.3042 96.0344 96.0952 95.6694C95.9209 95.2049 95.9558 94.7072 96.1649 94.2426C96.8966 92.2186 98.7783 90.7586 101.008 90.4268C101.949 90.2941 103.064 90.3605 103.726 89.6637C104.075 89.2987 104.249 88.7346 104.737 88.6019C105.051 88.5355 105.364 88.5687 105.643 88.7014L109.197 89.8959C109.581 90.0618 110.034 90.1282 110.452 90.095C110.905 90.0287 111.218 89.6637 111.184 89.2323C111.079 88.6683 110.173 88.4028 110.243 87.8387C110.278 87.6397 110.382 87.4737 110.556 87.3742C113.17 84.7197 116.863 83.3262 120.697 83.5584C121.15 84.2552 120.418 85.0847 119.825 85.7152C119.233 86.3456 118.745 87.4074 119.477 87.8387C119.756 87.9715 120.104 88.0378 120.418 88.0378C121.289 88.1374 122.16 88.4028 122.962 88.7678C124.181 89.2655 125.401 89.8296 126.586 90.46C126.481 89.73 126.376 88.9337 126.69 88.2369C127.004 87.5401 127.84 87.0092 128.572 87.2747C129.269 87.5401 129.652 88.436 130.384 88.5024C131.394 88.6019 131.778 87.2083 131.359 86.3124C130.941 85.4165 130.105 84.6866 130.035 83.7243C130 83.0607 130.244 82.2644 129.687 81.8662C129.478 81.7335 129.269 81.6671 129.06 81.6671L115.435 79.2781C114.633 79.1454 113.449 79.2449 113.414 80.0413C113.379 80.4726 113.797 80.904 113.623 81.3021C113.414 81.7335 112.786 81.7003 112.333 81.833C111.602 82.0653 111.253 82.8948 111.323 83.5916C111.462 84.3216 111.741 84.9852 112.159 85.5824C111.149 85.1179 109.825 85.0516 108.919 84.6866Z" fill="#3F3D56"/>
<path d="M98.0466 73.6705C96.3043 73.1065 94.3529 73.6705 93.203 75.0641C92.9939 75.3296 92.7848 75.7278 92.9939 76.0264C93.2727 76.4577 93.9347 76.2918 94.4574 76.1259C95.1892 75.8605 96.0255 75.8605 96.7573 76.0596C97.2451 76.2255 97.6633 76.4909 98.1163 76.6236C98.6041 76.8227 99.1268 76.7232 99.545 76.4246C99.8586 76.0927 99.8934 75.6282 99.8934 75.1637C99.9283 74.8651 99.8237 74.5664 99.6147 74.3342C99.4404 74.2346 99.1965 74.1683 98.9874 74.1683C98.4996 74.0687 98.0466 73.8364 97.733 73.4715" fill="#3F3D56"/>
<path d="M102.96 72.3764C102.333 72.3432 101.81 72.8078 101.775 73.3719C101.775 73.5378 101.81 73.7037 101.88 73.8696C102.472 74.0355 103.099 74.0686 103.692 73.9691C104.319 73.8696 104.807 73.4382 104.946 72.8741C104.249 73.0069 103.483 72.8741 102.89 72.5092" fill="#3F3D56"/>
<path d="M119.442 70.2196C117.839 70.5514 116.271 71.0492 114.808 71.7128C116.236 72.2437 117.142 73.6041 117.038 75.064C116.968 75.3295 116.968 75.6281 117.073 75.8935C117.247 76.2917 117.735 76.4244 118.188 76.524C118.954 76.7562 119.791 76.8558 120.592 76.8226C121.428 76.7894 122.16 76.3581 122.578 75.6613C122.683 75.3295 122.822 75.0308 122.996 74.7322C124.042 73.2059 127.143 75.064 128.258 73.5709C128.642 73.04 128.607 72.2768 129.129 71.8787C129.408 71.7128 129.687 71.58 130.035 71.5469C132.3 71.1155 134.565 70.8169 136.83 70.6178C137.911 70.5183 139.339 70.1533 139.339 69.1247C135.262 68.3615 131.011 68.8924 127.317 70.651C125.958 71.2814 124.216 72.6418 122.892 71.7791C122.404 71.4473 122.439 70.6178 121.777 70.2528C121.08 69.921 120.174 70.0537 119.442 70.2196Z" fill="#3F3D56"/>
<path d="M132.788 72.5755L134.705 72.9405C133.346 72.8741 132.161 73.9027 132.126 75.1968C132.126 75.2963 132.126 75.3958 132.126 75.4954C133.903 76.0594 135.889 75.4954 137.771 75.5949C139.653 75.6945 141.848 76.9553 141.535 78.7471C141.43 79.278 141.116 79.8089 141.291 80.3398C141.395 80.7048 141.744 80.9702 141.953 81.302C142.336 81.9988 142.022 82.8947 141.535 83.5251C141.047 84.1556 140.35 84.6533 139.932 85.3501C138.851 87.0423 139.444 89.199 140.106 91.0903C140.28 91.7871 140.629 92.4508 141.116 93.0148C142.092 93.9771 143.66 94.0766 145.054 94.1098C146.065 94.1098 147.249 94.0766 147.911 93.3135C148.748 92.318 148.155 90.7917 148.713 89.6304C149.236 88.5686 150.525 88.1373 151.675 87.8054C153.8 87.2082 155.996 86.7105 158.017 85.8478C160.526 84.7528 162.895 83.0274 165.648 82.8947C166.415 82.8615 167.216 82.9279 167.983 82.7288C168.749 82.5297 169.446 81.8993 169.377 81.1693C169.342 80.5389 168.784 80.0743 168.331 79.6098C167.878 79.1453 167.565 78.4153 167.948 77.9176L175.196 76.6235C174.673 75.2963 174.29 73.5377 175.475 72.675C175.893 72.3764 176.485 72.2437 176.834 71.8455C177.461 71.2151 177.147 70.0869 176.416 69.556C175.684 69.0251 174.743 68.8924 173.837 68.7929C170.666 68.5274 167.46 68.6933 164.289 68.8592C158.052 69.191 151.849 69.5228 145.612 69.8215C144.357 69.8878 142.928 69.7883 141.778 70.1865C140.803 70.5183 140.106 71.1487 138.991 71.381C136.9 71.7791 134.67 71.4805 132.788 72.5755Z" fill="#3F3D56"/>
<path d="M167.112 87.0092C166.903 86.976 166.728 87.0092 166.554 87.1419C166.45 87.2415 166.38 87.4074 166.38 87.5401C166.241 88.2037 166.415 88.9005 166.798 89.4646C167.216 90.0287 167.913 90.3605 168.61 90.2941C169.481 90.1946 170.108 89.4978 170.91 89.1328C172.13 88.6019 177.322 87.7724 173.732 85.9474C172.478 85.317 171.711 85.8811 170.736 86.2792C169.586 86.8433 168.366 87.0756 167.112 87.0092Z" fill="#3F3D56"/>
<path d="M198.578 71.5469C198.16 71.7128 197.811 72.0114 197.567 72.3764C197.358 72.7746 197.498 73.2723 197.881 73.4714C198.02 73.5377 198.194 73.5377 198.369 73.5377L200.076 73.5709C200.808 73.6041 201.714 73.7368 201.888 74.4004C202.028 74.8981 201.714 75.5286 202.097 75.8935C202.271 76.0263 202.481 76.0926 202.69 76.0926C203.247 76.2254 203.84 76.2585 204.397 76.159C205.652 75.8272 204.989 75.1304 205.373 74.4668C205.965 73.4714 205.861 74.0686 206.906 73.5045C207.673 73.0732 208.683 72.3432 208.056 71.2814C206.941 69.4897 200.216 70.7505 198.578 71.5469Z" fill="#3F3D56"/>
<path d="M232.204 70.6179L231.229 70.7506C228.999 71.0492 226.768 71.3147 224.608 71.9451C225.549 72.3101 226.524 72.5092 227.5 72.6087C228.058 72.6419 228.58 72.7083 229.138 72.841C230.079 73.1064 231.054 73.8032 231.96 73.4382C232.518 73.206 232.727 72.6419 233.18 72.3433C233.494 72.1442 234.748 71.8124 234.888 71.5801C235.968 69.9542 233.076 70.5183 232.204 70.6179Z" fill="#3F3D56"/>
<path d="M236.56 74.8981C235.236 75.5949 234.016 76.4576 232.901 77.453C232.448 77.8844 231.96 78.3821 231.995 78.9793C232.065 79.7757 232.936 80.2402 233.738 80.572L236.909 81.8329C237.292 81.302 236.943 80.6052 236.56 80.1075C236.177 79.6098 235.689 79.0125 235.863 78.4153C236.072 77.7185 236.943 77.4862 237.71 77.3535C238.93 77.1544 242.205 77.1876 241.822 75.2963C241.334 73.1064 237.78 74.2345 236.56 74.8981Z" fill="#3F3D56"/>
<path d="M235.933 199.359C235.619 200.189 235.619 201.184 236.107 201.881C236.699 202.711 237.849 203.009 238.86 202.777C239.87 202.511 240.776 201.981 241.439 201.217C242.031 200.587 242.554 199.857 242.902 199.061C243.425 197.833 243.808 196.539 243.982 195.245L244.958 190.334C245.167 189.239 245.167 185.855 243.041 186.983C242.449 187.282 241.125 189.637 240.533 190.334C239.452 191.529 239.278 192.723 238.721 194.183C238.024 196.008 236.595 197.534 235.933 199.359Z" fill="#3F3D56"/>
<path d="M347.824 224.51C347.127 224.245 346.465 223.946 345.803 223.581C345.141 225.273 344.792 227.065 344.792 228.89L349.531 226.335C350.228 225.937 351.065 225.406 351.03 224.643C351.03 224.444 350.925 224.245 350.751 224.145C350.646 224.112 350.542 224.079 350.403 224.112C349.706 224.178 349.044 224.51 348.381 224.743C347.719 224.975 346.953 225.107 346.326 224.743" fill="#3F3D56"/>
<path d="M372.878 226.037C372.356 226.169 371.833 226.335 371.345 226.567C370.265 227.098 369.498 228.094 368.522 228.791C367.582 229.454 366.467 229.819 365.351 230.184C365.038 230.45 365.177 231.014 365.526 231.246C365.909 231.445 366.327 231.545 366.78 231.511C367.93 231.545 369.15 231.545 370.16 231.014C370.718 230.649 371.275 230.251 371.763 229.819C372.948 228.89 374.342 228.26 375.771 227.662C376.293 227.463 376.746 227.198 377.164 226.866C378.036 226.037 378.105 224.776 376.851 224.477C375.805 224.245 373.854 225.738 372.878 226.037Z" fill="#3F3D56"/>
<path d="M383.925 219.135C384.029 217.974 383.611 216.846 382.705 216.049C382.705 217.177 382.67 218.405 381.973 219.334C381.485 219.998 380.754 220.462 380.231 221.093C379.708 221.723 379.464 222.752 380.091 223.316C380.475 223.614 380.963 223.747 381.45 223.78C382.67 223.913 384.099 223.979 384.935 223.15C385.388 222.685 385.632 222.022 386.19 221.657C386.399 221.557 386.608 221.458 386.747 221.292C386.991 220.927 386.608 220.462 386.19 220.33C385.771 220.197 385.318 220.263 384.865 220.13C384.412 219.998 384.064 219.566 384.273 219.201" fill="#3F3D56"/>
<path d="M364.271 177.46C363.644 177.593 362.947 177.659 362.32 177.56C361.24 177.36 360.369 176.597 359.497 175.934C357.407 174.407 354.863 173.578 352.249 173.511C349.845 173.478 347.441 174.076 345.106 173.644C345.245 174.441 345.977 175.071 346.779 175.436C347.58 175.801 348.416 175.967 349.218 176.332C350.472 176.896 351.483 177.891 352.005 179.119C352.249 179.683 352.424 180.28 352.807 180.778C353.574 181.773 355.072 182.006 356.361 181.906C358.069 181.807 359.846 181.342 361.414 181.939C362.634 182.404 363.505 183.399 364.515 184.196C365.526 184.992 366.955 185.556 368.104 184.992C365.63 184.229 363.958 182.006 363.993 179.55C365.142 179.65 368.418 179.617 368.244 177.759C368.07 176.232 365.247 177.294 364.271 177.46Z" fill="#3F3D56"/>
<path d="M349.357 190.168C349.566 189.106 350.681 188.177 350.333 187.149C350.089 186.452 349.218 186.087 348.451 186.087C347.684 186.087 346.918 186.286 346.116 186.319C345.594 186.286 345.106 186.286 344.583 186.352C343.05 186.585 342.074 188.144 340.611 188.675C339.74 189.007 338.729 188.94 337.788 189.173C335.697 189.704 334.373 191.595 332.91 193.088C330.54 195.543 327.474 197.236 324.059 197.999C322.874 198.264 321.585 198.43 320.644 199.16C319.389 200.122 319.076 201.815 318.797 203.341C318.03 207.522 316.846 211.636 315.278 215.651L320.261 216.248C321.201 216.348 322.177 216.48 323.083 216.215C323.745 215.983 324.372 215.651 324.965 215.253C327.195 213.959 329.669 213.096 332.248 212.764C333.537 212.598 334.931 212.565 336.15 213.03C337.37 213.494 338.415 214.523 338.52 215.784C339.6 215.452 340.785 215.751 341.586 216.48C342.353 217.244 342.876 218.206 343.05 219.268C343.189 219.931 343.329 220.694 343.956 220.96C344.479 221.192 345.071 220.927 345.629 220.894C347.545 220.761 349.113 222.884 350.995 222.519C353.016 222.121 353.504 219.268 355.455 218.67C356.57 218.339 358.173 218.737 358.696 217.741C359.184 216.845 358.208 215.85 358.313 214.855C358.417 213.627 359.95 213.129 361.1 212.598C365.108 210.807 366.989 205.697 365.073 201.914C363.923 199.658 361.658 197.899 361.24 195.444C360.926 193.553 361.693 191.329 360.438 189.836C359.776 189.073 358.696 188.675 358.313 187.746C358.069 187.182 358.173 186.518 358.034 185.921C357.894 185.324 357.337 184.693 356.745 184.859C354.933 185.324 354.34 190.633 353.399 191.927C351.936 193.884 348.904 192.59 349.357 190.168Z" fill="#3F3D56"/>
<path d="M315.87 179.451C315.243 179.285 314.581 179.119 313.988 179.351C313.396 179.583 313.047 180.413 313.535 180.844C317.264 180.712 320.992 180.579 324.686 181.043C328.937 181.608 333.154 182.968 337.44 182.57C335.001 181.873 332.526 181.342 330.018 180.944L325.836 180.181C324.721 179.948 323.571 179.783 322.456 179.683C320.017 179.484 318.24 180.081 315.87 179.451Z" fill="#3F3D56"/>
<path d="M319.598 167.108C319.285 167.074 318.902 167.074 318.762 167.307C318.623 167.539 318.797 167.871 318.693 168.136C318.588 168.501 318.065 168.601 317.682 168.534C317.299 168.468 316.846 168.368 316.497 168.534C316.114 168.767 315.975 169.231 316.114 169.629C316.253 170.027 316.497 170.392 316.811 170.691C317.334 171.322 317.926 171.886 318.588 172.383C319.877 173.279 321.62 173.711 322.421 175.038C322.526 175.303 322.7 175.502 322.944 175.701C323.327 175.934 323.85 175.768 324.268 175.569L325.731 174.938C326.01 174.839 326.219 174.706 326.428 174.507C326.777 174.076 326.568 173.478 326.289 173.014C326.01 172.549 325.662 172.085 325.697 171.521C325.801 170.558 327.09 170.193 327.613 169.397C328.136 168.568 327.787 167.539 327.857 166.577C327.927 165.449 328.658 163.989 327.474 163.159C326.463 162.429 325.487 163.093 324.756 163.889C323.153 165.548 322.421 167.34 319.598 167.108Z" fill="#3F3D56"/>
<path d="M328.484 150.318C328.972 151.214 330.018 151.778 330.575 152.641C331.167 153.603 331.098 154.831 331.725 155.76C332.387 156.722 333.711 157.22 334.06 158.315C334.478 159.509 333.537 160.936 334.269 161.965C334.826 162.628 335.837 162.761 336.534 162.263C336.569 162.23 336.603 162.197 336.638 162.164C337.266 161.5 337.231 160.471 336.569 159.841C336.15 159.476 335.523 159.31 335.175 158.879C335.001 158.613 334.861 158.348 334.826 158.049C334.617 157.186 334.652 156.257 334.931 155.395C335.035 155.162 335.035 154.93 335.001 154.698C334.826 154.267 334.199 154.233 333.746 154.001C332.736 153.537 332.77 152.176 332.945 151.114C332.84 151.811 330.192 150.617 329.913 150.219C329.355 149.422 329.669 147.896 329.565 147C328.31 147.597 327.857 149.19 328.484 150.318Z" fill="#3F3D56"/>
<path d="M301.827 164.32C301.339 163.789 300.607 163.259 299.945 163.557C299.457 163.789 299.318 164.453 299.492 164.951C299.736 165.449 300.085 165.847 300.573 166.145C301.932 167.207 303.395 168.169 304.58 169.43C306.705 171.653 307.821 174.673 310.155 176.73C310.608 177.195 311.235 177.526 311.898 177.626C312.56 177.692 313.326 177.261 313.396 176.63C313.466 176.1 313.082 175.635 312.699 175.237C311.793 174.308 310.817 173.445 309.981 172.483C309.598 172.118 309.354 171.62 309.284 171.089C309.284 170.558 309.772 170.027 310.329 170.16C309.667 169.994 309.214 168.966 308.239 168.767C307.437 168.601 307.263 169.065 306.287 168.7C304.51 167.97 303.116 165.648 301.827 164.32Z" fill="#3F3D56"/>
<path d="M344.27 113.653C343.747 113.521 343.259 113.322 342.736 113.122C341.412 112.724 339.635 113.686 339.809 115.014C339.914 115.876 340.785 116.474 341.273 117.237C341.97 118.365 341.796 119.792 341.412 121.053C341.308 121.451 341.133 121.816 340.89 122.148C340.541 122.479 340.158 122.778 339.705 122.977C337.893 123.939 336.29 125.233 335.001 126.793C334.861 126.926 334.757 127.125 334.722 127.291C334.652 127.722 335.14 128.054 335.384 128.419C335.976 129.248 335.558 130.343 335.593 131.372C335.558 131.67 335.697 131.936 335.976 132.102C336.325 132.268 336.743 131.969 336.952 131.637C337.579 130.542 337.126 128.751 338.311 128.22C338.555 128.12 338.799 128.087 338.973 127.888C339.217 127.589 338.973 127.125 339.112 126.793C339.287 126.262 340.088 126.229 340.68 126.262C341.726 126.295 342.736 126.162 343.712 125.864C344.095 125.764 344.444 125.598 344.723 125.3C345.071 124.868 345.036 124.271 344.967 123.707C344.618 120.986 343.712 118.365 342.318 116.009C343.364 116.142 344.514 116.241 345.454 115.711C345.977 115.412 346.569 114.549 346.326 113.952C345.873 113.023 345.141 113.819 344.27 113.653Z" fill="#3F3D56"/>
<path d="M208.753 128.551C208.892 129.182 208.997 129.879 208.788 130.509C208.579 131.14 207.882 131.637 207.22 131.471C206.697 131.339 206.418 130.841 206.035 130.443C204.014 128.352 199.449 129.58 198.194 126.992C197.672 125.93 198.02 124.669 197.672 123.574C197.219 122.247 195.895 121.384 194.431 121.484C193.804 121.584 193.177 121.749 192.584 122.015C188.647 123.508 184.465 124.503 180.249 124.968C179.447 125.001 178.646 125.167 177.879 125.366C176.137 125.963 174.952 127.49 174.116 129.082C173.279 130.675 172.652 132.334 171.502 133.728C170.318 135.188 168.645 136.216 167.077 137.311C166.484 137.676 165.962 138.174 165.613 138.771C165.265 139.435 165.3 140.198 165.335 140.928L165.648 149.82C165.683 150.982 165.753 152.143 166.275 153.172C166.937 154.466 168.262 155.295 169.202 156.423C170.143 157.585 170.631 159.011 170.596 160.505C170.561 161.102 170.527 161.799 171.014 162.164C171.293 162.33 171.642 162.429 171.99 162.429L184.639 163.424C186.869 163.59 189.344 163.889 190.772 165.482C191.469 166.245 191.992 167.34 193.072 167.406C193.525 167.439 193.978 167.273 194.396 167.24C195.546 167.141 196.522 167.97 197.149 168.866C198.09 170.26 198.543 171.886 198.369 173.545C198.264 174.573 197.916 175.569 197.846 176.63C197.567 180.579 201.087 183.997 201.156 187.945C201.191 190.268 200.041 192.424 198.926 194.482C200.738 197.103 199.24 200.62 199.972 203.673C200.669 206.593 203.212 208.882 203.84 211.802C204.118 213.129 204.153 214.788 205.373 215.485C205.93 215.751 206.523 215.85 207.115 215.817C210.774 215.85 214.363 215.087 217.639 213.527C219.172 212.797 220.775 211.736 221.019 210.11C221.228 208.816 220.531 207.356 221.263 206.228C222.099 204.9 224.225 205 225.444 203.971C227.43 202.312 225.897 199.127 226.699 196.738C227.43 194.581 229.904 193.453 231.124 191.529C231.612 190.699 231.96 189.803 232.169 188.874C232.727 186.651 233.076 184.395 233.215 182.105C233.25 180.712 233.354 179.318 233.528 177.958C234.853 170.127 243.007 164.851 245.655 157.319C245.899 156.589 246.038 155.627 245.341 155.229C244.958 155.063 244.505 154.997 244.052 155.096L238.233 155.793C237.501 155.892 236.734 155.959 236.072 155.66C235.41 155.362 234.922 154.565 235.271 153.968C236.246 152.276 234.225 150.086 233.319 148.36C230.88 143.649 227.988 139.169 224.643 134.955C224.434 134.756 224.294 134.458 224.259 134.159L225.932 134.225C225.374 132.301 224.434 130.211 222.517 129.514C221.402 129.116 220.217 129.248 219.032 129.315C215.687 129.514 212.063 129.049 208.753 128.551Z" fill="#3F3D56"/>
<path d="M219.032 85.516C219.904 86.4119 220.879 87.3409 222.169 87.5068C224.399 87.7723 226.037 85.5823 227.047 83.6579C227.117 84.6865 228.058 85.4496 229.103 85.4164C229.661 85.3169 230.183 85.1178 230.671 84.8524C235.131 82.5297 240.08 81.302 245.167 81.302C245.063 80.5389 245.585 79.8421 246.352 79.6762C247.397 79.4771 248.303 80.3398 248.791 81.2025C249.279 82.0652 249.593 83.0938 250.394 83.7574C251.195 84.421 252.729 84.3878 253.007 83.4256C253.321 82.4965 252.311 81.7334 251.474 81.2025C250.638 80.6716 249.767 79.6762 250.324 78.8798C254.576 77.9839 258.862 77.0881 263.217 76.889C263.949 76.9222 264.681 76.7894 265.378 76.524C266.04 76.2254 266.563 75.4954 266.388 74.8318C264.437 75.2631 262.416 74.5331 261.266 72.9736C267.294 72.5091 273.741 72.0778 279.107 74.7986C279.734 76.1258 276.459 77.2208 277.365 78.3821C277.644 78.7471 278.201 78.8135 278.689 78.8135C282.418 78.8798 286.146 78.9462 289.84 78.4153C291.199 78.2162 292.558 77.9508 293.882 78.1167C296.147 78.3821 298.064 79.8089 300.259 80.2734C301.165 80.4725 302.175 80.4725 302.942 79.9748C303.709 79.4771 304.022 78.3489 303.395 77.6853C305.486 75.7276 308.936 76.2254 311.688 77.1544C314.441 78.0835 317.055 79.5766 319.947 79.8089C322.038 79.9416 324.163 79.4107 326.219 79.7757C327.509 79.9748 328.728 80.5389 329.983 80.8707C332.387 81.5011 334.896 81.3684 337.405 81.4016C343.747 81.4679 350.019 82.6624 355.908 84.9187C356.675 85.151 357.372 85.5492 357.964 86.08C358.522 86.6441 358.8 87.5068 358.417 88.2036L352.319 87.3409C352.877 88.4027 354.375 88.6018 355.595 88.9668C356.814 89.3318 358.034 90.5926 357.337 91.5881C356.048 91.1899 354.863 92.4508 354.201 93.5789C353.539 94.707 352.737 96.1006 351.378 96.167C350.159 96.2334 348.66 95.2379 347.859 96.1338C348.974 97.4611 349.915 98.8878 350.681 100.414C351.483 101.974 352.04 103.964 350.96 105.358C350.786 105.624 350.542 105.789 350.228 105.889C349.357 106.088 348.8 105.093 348.172 104.462C347.371 103.699 346.186 103.467 345.141 103.102C344.095 102.737 342.945 102.007 342.876 100.945C342.841 100.281 343.189 99.651 343.468 99.0205C343.921 97.9919 344.13 96.8638 344.061 95.7356C343.991 94.8398 343.747 93.8775 343.05 93.2471C342.353 92.6167 341.168 92.4176 340.436 92.9816C340.088 93.2471 339.809 93.6784 339.356 93.7116C338.555 93.7448 337.962 92.4176 337.335 92.8821C337.405 93.3466 337.3 93.8443 337.056 94.2425C335.175 95.802 332.283 95.1384 329.843 95.7025C328.693 96.0343 327.578 96.4656 326.533 97.0629C326.15 97.2288 325.836 97.4942 325.592 97.826C325.278 98.3901 325.627 99.1201 326.15 99.4851C326.707 99.8169 327.369 100.016 328.031 100.082C330.993 100.613 334.025 101.443 336.359 103.268C338.694 105.093 340.227 108.079 339.496 110.866L333.641 105.524C333.851 107.747 333.99 110.003 334.025 112.26C334.06 112.691 333.99 113.156 333.851 113.554C333.432 114.416 332.317 114.715 331.307 114.914C330.227 115.113 329.53 116.109 329.739 117.137C329.739 117.204 329.774 117.27 329.808 117.336C330.157 118.431 331.028 119.294 331.829 120.124C332.631 120.953 333.432 121.948 333.537 123.077C333.641 124.205 332.735 125.499 331.551 125.432C330.645 125.366 329.983 124.603 329.564 123.807C329.146 123.01 328.937 122.148 328.38 121.484C326.603 119.46 322.665 120.323 321.097 118.166C320.295 119.062 320.017 120.256 320.365 121.384C321.097 120.953 322.107 121.351 322.665 121.982C323.222 122.612 323.466 123.442 323.919 124.138C324.512 125.101 325.418 125.963 325.522 127.058C325.487 127.49 325.522 127.888 325.557 128.319C325.697 128.983 326.289 129.48 326.707 130.045C327.683 131.339 327.613 133.164 326.986 134.624C326.359 136.083 325.244 137.344 324.128 138.539C322.212 140.629 320.226 142.72 317.926 144.478C317.264 144.976 316.567 145.474 316.184 146.17C315.8 146.867 315.765 147.829 316.393 148.36C315.94 148.394 315.138 148.593 314.685 148.626C314.511 146.934 314.511 145.208 314.581 143.483C312.803 142.686 310.922 144.843 311.131 146.701C311.34 148.559 312.769 150.053 313.779 151.645C314.511 152.807 315.068 154.167 314.825 155.527C314.581 156.888 313.326 158.116 311.897 157.983C309.632 157.784 308.692 154.698 306.427 154.333C306.218 154.3 306.008 154.3 305.834 154.399C305.486 154.565 305.451 154.997 305.416 155.361C305.312 157.12 305.242 158.978 305.974 160.604C307.054 162.993 309.772 165.017 309.214 167.539C306.113 166.178 304.475 162.86 303.743 159.642C303.012 156.423 302.872 153.105 301.583 150.086C300.572 151.313 298.482 150.285 297.576 149.024C296.705 147.796 296.182 146.403 295.346 145.175C294.509 143.947 293.22 142.852 291.687 142.786C290.084 142.72 288.69 143.781 287.435 144.777C286.425 145.606 285.38 146.436 284.787 147.564C283.916 149.223 284.16 151.148 284.125 152.972C284.09 154.963 283.637 157.054 282.209 158.514C280.78 159.974 278.166 160.471 276.598 159.177C275.762 158.48 275.379 157.485 275.03 156.49C273.323 151.745 271.894 146.934 270.779 142.056C270.5 143.184 269.49 144.611 268.514 143.947C268.305 143.781 268.131 143.549 267.991 143.317C266.144 140.364 262.764 138.572 259.349 137.51C255.935 136.448 252.311 135.951 248.93 134.789C247.014 134.126 245.202 133.263 243.529 132.234C242.658 133.462 242.554 135.055 243.285 136.382C244.052 137.643 245.725 138.373 247.188 137.942C247.955 137.709 248.582 137.212 249.314 136.979C250.046 136.747 251.056 136.847 251.405 137.543C251.718 138.207 251.23 139.003 251.474 139.667C251.823 140.696 253.495 140.795 254.053 141.724C254.471 142.421 254.123 143.383 253.53 143.947C252.938 144.511 252.101 144.843 251.335 145.241C248.896 146.535 247.188 148.725 245.063 150.451C242.937 152.176 239.94 153.404 237.396 152.309C237.989 149.389 234.365 147.265 233.703 144.379C233.494 143.416 233.598 142.421 233.285 141.492C232.832 140.132 231.577 139.236 230.532 138.207C228.023 135.685 226.664 132.301 226.803 128.817C226.873 127.622 227.082 126.395 226.803 125.233C226.524 124.072 225.514 122.944 224.259 122.977C221.402 123.11 217.778 123.309 216.28 120.986C215.757 120.157 215.513 118.929 216.28 118.299C216.837 117.834 217.639 117.9 218.37 117.967L224.852 118.564C226.35 118.697 227.988 118.829 229.312 118.066C230.636 117.303 231.159 115.312 229.974 114.416C229.103 113.753 227.535 113.819 227.256 112.791C227.047 111.928 228.058 110.966 227.5 110.236C227.117 109.738 226.246 109.871 225.723 110.236C225.2 110.601 224.817 111.198 224.225 111.463C223.179 111.961 221.96 111.497 220.844 111.165C219.729 110.833 218.231 110.8 217.708 111.795C217.116 112.89 218.231 114.317 217.639 115.445C216.837 116.905 214.154 116.075 213.074 117.336C211.784 118.763 213.945 120.92 213.527 122.745C212.412 123.276 211.088 123.209 210.042 122.546C208.997 121.882 208.439 120.721 208.579 119.526C208.683 118.697 209.136 117.867 208.823 117.071C208.579 116.44 207.917 116.075 207.289 115.744L201.017 112.426C200.425 113.454 201.156 114.748 202.097 115.511C203.038 116.275 204.188 116.872 204.78 117.9C205.582 119.36 205.024 121.185 203.561 122.015C203.387 122.148 203.143 122.181 202.934 122.114C202.724 122.015 202.585 121.816 202.515 121.583C201.4 118.896 199.728 116.208 197.079 114.815C194.431 113.421 190.598 113.686 188.856 116.075C188.438 116.64 188.159 117.27 187.81 117.867C185.894 121.053 181.782 122.546 177.914 122.446C177.531 122.479 177.147 122.38 176.834 122.214C176.207 121.816 176.241 120.953 176.346 120.223L176.764 117.204C176.834 116.606 176.973 115.91 177.461 115.545C178.158 115.014 179.203 115.345 180.109 115.345C181.503 115.279 182.723 114.383 183.141 113.122C183.524 111.828 183.106 110.468 182.096 109.539C181.677 109.174 181.12 108.709 181.329 108.212C181.503 107.946 181.817 107.747 182.13 107.681C183.768 107.216 185.476 107.117 187.079 106.586C188.681 106.055 190.25 104.96 190.598 103.4C190.703 102.903 190.772 102.339 191.225 102.106C191.469 102.007 191.713 101.974 191.957 101.974C193.769 101.741 195.058 100.215 194.954 98.4896C195.72 97.9919 196.801 98.3569 197.532 98.8878C198.264 99.4187 198.926 100.149 199.832 100.381C201.505 100.812 203.143 99.3855 204.885 99.3855C205.617 99.3855 206.383 99.6178 207.08 99.3855C207.777 99.1533 208.195 98.4896 208.753 97.9919C209.31 97.4942 210.216 97.1956 210.739 97.7265L210.321 94.7402C212.028 95.1384 213.875 94.8398 215.339 93.8775L209.868 92.1189C209.694 92.0858 209.519 91.9862 209.345 91.8535C208.962 91.4553 209.345 90.8249 209.659 90.3604C210.425 89.2654 210.565 87.4405 209.276 86.8764C208.404 86.5114 207.429 86.9427 206.592 87.4073L202.62 89.5308C202.481 90.2608 203.421 90.659 203.979 91.1567C204.92 91.953 205.024 93.3466 204.153 94.2425C203.735 94.707 203.108 94.9725 202.446 94.9725C202.968 95.6361 203.177 96.4988 202.968 97.2951L200.285 97.4942C199.972 97.5606 199.658 97.4942 199.414 97.3283C199.135 97.0961 199.17 96.6647 199.1 96.2997C198.926 95.437 198.055 94.8066 197.149 94.6739C196.243 94.5411 195.302 94.707 194.396 94.9061C194.013 95.0389 193.595 95.0388 193.211 94.8729C193.002 94.7402 192.828 94.5411 192.758 94.3089C192.375 93.3798 192.724 92.318 193.351 91.5549C193.978 90.7917 194.849 90.1945 195.651 89.564C197.532 88.0045 198.891 85.9805 199.623 83.7242C201.087 83.127 202.62 82.3306 204.118 81.7334C206.383 80.6384 208.962 80.1739 211.506 80.373L216.489 80.4725C217.952 80.5057 219.485 80.5389 220.844 81.0697C222.203 81.6006 223.423 82.762 223.528 84.1887C223.597 84.5205 223.458 84.8524 223.214 85.0514C223.005 85.151 222.796 85.1842 222.587 85.1842C221.019 85.151 220.426 85.4828 219.032 85.516Z" fill="#3F3D56"/>
<path d="M179.168 100.447C179.552 100.082 179.726 99.5515 179.552 99.0538C178.576 98.6888 177.496 98.8879 176.729 99.5515C176.416 99.8502 176.172 100.149 175.963 100.514C175.301 101.542 174.708 102.77 175.091 103.898C175.161 104.164 175.335 104.363 175.544 104.495C175.719 104.562 175.893 104.595 176.067 104.562C176.799 104.562 177.531 104.529 178.228 104.429C178.681 104.363 179.168 104.263 179.343 103.865C179.552 103.367 179.029 102.77 179.168 102.239C179.273 102.007 179.447 101.775 179.621 101.609C179.831 101.443 179.935 101.177 179.9 100.912C179.831 100.646 179.447 100.514 179.273 100.746" fill="#3F3D56"/>
<path d="M182.932 95.802C182.305 95.6693 181.643 95.6361 180.98 95.6693C180.841 95.6693 180.702 95.7025 180.562 95.7689C180.423 95.8684 180.353 95.968 180.318 96.1339C180.04 96.9966 180.493 97.9588 181.399 98.2906C181.643 98.357 181.852 98.4233 182.061 98.5561C182.618 98.9542 182.27 99.8169 182.374 100.481C182.479 101.211 183.245 101.841 183.106 102.571C183.002 103.168 182.339 103.6 182.444 104.197C182.549 104.794 183.385 104.993 184.012 105.026C184.395 105.093 184.779 105.059 185.127 104.894C185.476 104.661 185.72 104.33 185.824 103.931C186.103 103.168 186.207 102.372 186.138 101.576C186.138 101.211 186.033 100.846 185.859 100.547C185.65 100.281 185.441 100.049 185.197 99.8501C183.977 98.4897 185.301 96.4657 182.932 95.802Z" fill="#3F3D56"/>
<path opacity="0.8" d="M346.395 203.673C346.395 203.673 251.196 151.645 210.216 161.5C210.216 161.5 123.345 170.392 113.274 189.969C113.274 189.969 85.6762 107.813 75.6057 105.059" stroke="#F1D00B" stroke-width="2" stroke-miterlimit="10"/>
<path opacity="0.8" d="M113.274 189.969C129.234 149.455 273.044 104.529 273.044 104.529C252.624 109.472 210.216 161.5 210.216 161.5C210.216 161.5 120.488 99.3192 75.6057 105.093C75.6057 105.093 273.183 111.264 346.395 203.673" stroke="#F1D00B" stroke-width="2" stroke-miterlimit="10"/>
<path d="M75.6056 109.041C77.915 109.041 79.7872 107.258 79.7872 105.059C79.7872 102.86 77.915 101.078 75.6056 101.078C73.2962 101.078 71.4241 102.86 71.4241 105.059C71.4241 107.258 73.2962 109.041 75.6056 109.041Z" fill="#22335F"/>
<path d="M113.274 193.951C115.584 193.951 117.456 192.168 117.456 189.969C117.456 187.77 115.584 185.987 113.274 185.987C110.965 185.987 109.093 187.77 109.093 189.969C109.093 192.168 110.965 193.951 113.274 193.951Z" fill="#22335F"/>
<path d="M273.044 108.51C275.353 108.51 277.226 106.728 277.226 104.529C277.226 102.33 275.353 100.547 273.044 100.547C270.735 100.547 268.862 102.33 268.862 104.529C268.862 106.728 270.735 108.51 273.044 108.51Z" fill="#22335F"/>
<path d="M346.395 207.654C348.705 207.654 350.577 205.872 350.577 203.673C350.577 201.474 348.705 199.691 346.395 199.691C344.086 199.691 342.214 201.474 342.214 203.673C342.214 205.872 344.086 207.654 346.395 207.654Z" fill="#22335F"/>
<path d="M210.216 165.482C212.526 165.482 214.398 163.699 214.398 161.5C214.398 159.301 212.526 157.518 210.216 157.518C207.907 157.518 206.035 159.301 206.035 161.5C206.035 163.699 207.907 165.482 210.216 165.482Z" fill="#22335F"/>
</g>
<defs>
<clipPath id="clip0_3_456">
<rect width="410" height="290" fill="white" transform="translate(1 2)"/>
</clipPath>
</defs>
</svg>
