<svg width="411" height="294" viewBox="0 0 411 294" fill="none" xmlns="http://www.w3.org/2000/svg">
<path d="M332.796 186.879C333.79 186.978 334.634 186.233 334.734 185.24C334.783 184.694 334.585 184.197 334.237 183.8C334.187 183.601 334.187 183.502 334.137 183.303C334.137 183.253 334.187 183.204 334.187 183.204C335.33 180.82 338.212 179.777 340.596 180.919C341.739 181.465 342.634 182.459 343.031 183.651C344.323 187.226 346.012 190.802 346.31 194.527C346.459 196.165 346.261 197.804 345.813 199.394C349.589 192.093 351.726 184.098 352.123 175.903C352.223 173.867 352.223 171.781 352.074 169.745C351.974 168.057 351.776 166.368 351.527 164.729C350.136 155.691 346.559 147.099 341.193 139.7C338.51 138.061 336.373 135.627 335.131 132.747C334.684 131.704 334.336 130.611 334.237 129.469C334.535 129.519 334.883 129.569 335.181 129.618C335.28 129.618 335.38 129.618 335.479 129.668H335.529C336.522 129.767 337.367 129.022 337.466 128.079C337.516 127.632 337.367 127.234 337.119 126.837C336.969 126.688 336.87 126.49 336.721 126.341C336.522 126.092 336.324 125.794 336.125 125.546C336.125 125.496 336.075 125.496 336.075 125.447C335.876 125.149 335.628 124.851 335.429 124.553C335.876 123.907 336.473 123.361 337.168 123.013C339.603 121.722 342.783 122.864 344.373 125.049C345.962 127.234 346.161 130.264 345.466 132.896C344.77 135.131 343.727 137.217 342.335 139.104C342.435 139.253 342.584 139.451 342.683 139.6C344.869 142.729 346.757 146.007 348.298 149.483C348.049 145.659 348.745 141.835 350.285 138.309C351.825 135.031 354.558 132.35 356.943 129.569C359.825 126.241 365.389 128.029 365.687 132.399C365.687 132.449 365.687 132.499 365.687 132.548C365.34 132.747 364.992 132.896 364.644 133.095C363.501 133.79 363.104 135.28 363.799 136.422C364.147 137.018 364.743 137.415 365.389 137.564H365.439C365.24 138.756 364.992 139.998 364.644 141.14C362.557 147.745 357.787 153.208 351.527 156.187C351.328 156.287 351.13 156.386 350.931 156.485C352.421 161.402 353.266 166.517 353.415 171.682C353.515 174.711 353.366 177.741 352.968 180.77V180.671C353.763 177.344 355.701 174.413 358.433 172.328C362.508 169.298 368.072 168.355 372.395 165.971C373.736 165.176 375.426 165.673 376.221 167.014C376.568 167.61 376.668 168.255 376.568 168.901C376.568 168.951 376.568 169 376.568 169C375.922 169.249 375.326 169.497 374.68 169.795C374.333 169.994 373.985 170.143 373.637 170.341C372.494 171.036 372.097 172.526 372.792 173.669C373.14 174.264 373.736 174.662 374.382 174.811H374.432C374.482 174.811 374.482 174.811 374.531 174.811C373.339 177.344 371.699 179.628 369.762 181.565C364.843 186.382 358.185 188.915 351.328 188.667C350.235 192.639 348.695 196.463 346.807 200.089L332.547 199.443C332.498 199.294 332.448 199.096 332.448 198.947C333.74 199.096 335.081 199.096 336.423 198.897C335.429 197.556 334.436 196.215 333.442 194.874C333.442 194.825 333.392 194.825 333.392 194.775C332.895 194.08 332.398 193.384 331.852 192.739C331.902 190.852 332.2 188.815 332.796 186.879Z" fill="#F2F2F2"/>
<path d="M45.8654 63.8159C44.8717 63.9649 43.9774 63.3193 43.8283 62.3261C43.729 61.7798 43.878 61.2831 44.2258 60.8859C44.2755 60.6872 44.2755 60.5879 44.2755 60.3892C44.2755 60.3396 44.2258 60.3396 44.2258 60.2899C42.934 57.9558 40.0026 57.1115 37.6674 58.4524C36.5743 59.0484 35.7297 60.0913 35.3819 61.2832C34.3385 64.9085 32.848 68.5835 32.7983 72.3578C32.7983 73.9967 33.0467 75.6355 33.5932 77.2247C29.37 70.1727 26.7367 62.3261 25.8424 54.1815C25.6437 52.1453 25.4946 50.0595 25.4946 48.0234C25.4946 46.3348 25.594 44.6463 25.743 42.9578C26.5877 33.8696 29.6185 25.0794 34.4876 17.3818C37.0712 15.594 39.0586 13.0612 40.1517 10.0815C40.5491 9.03858 40.7976 7.89635 40.8472 6.75412C40.5491 6.80378 40.251 6.9031 39.9032 6.95277C39.8039 6.95277 39.7045 7.00243 39.6051 7.00243H39.5554C38.5617 7.15141 37.6674 6.50581 37.5184 5.51256C37.4687 5.0656 37.568 4.61865 37.7668 4.27101C37.8661 4.07236 38.0152 3.92337 38.1146 3.72473C38.3133 3.42675 38.4624 3.17844 38.6611 2.88047C38.6611 2.83081 38.7108 2.83081 38.7108 2.78115C38.9095 2.48317 39.1083 2.13554 39.307 1.83756C38.8102 1.24162 38.1643 0.744998 37.4687 0.397363C34.9844 -0.695204 31.8543 0.596011 30.4134 2.88047C28.9229 5.16493 28.9725 8.19432 29.8172 10.7768C30.6618 12.9619 31.8543 14.998 33.3448 16.7859C33.2455 16.9845 33.0964 17.1335 32.997 17.3322C31.0096 20.5602 29.3203 23.9869 27.9788 27.5626C27.9788 23.7386 27.0845 19.9642 25.3455 16.5376C23.6066 13.3592 20.7249 10.8761 18.1412 8.24398C15.0608 5.11527 9.59543 7.20108 9.59543 11.621C9.59543 11.6707 9.59543 11.7203 9.59543 11.77C9.94322 11.919 10.291 12.068 10.6388 12.2666C11.8313 12.9122 12.2784 14.3524 11.6822 15.5443C11.3841 16.1403 10.7879 16.5872 10.142 16.7859H10.0923C10.3407 17.9778 10.6885 19.1697 11.1357 20.3119C13.6199 26.768 18.7375 31.9328 25.1965 34.5153C25.3952 34.6146 25.594 34.6642 25.8424 34.7636C24.7493 39.7298 24.2028 44.845 24.3519 50.0098C24.4512 53.0392 24.799 56.0686 25.3952 59.0484L25.3455 58.949C24.3519 55.6713 22.2154 52.8406 19.3834 50.9534C15.1601 48.1723 9.54574 47.6261 5.02442 45.4906C3.63324 44.7953 1.94395 45.3416 1.29805 46.7321C0.999937 47.3281 0.900567 48.0234 1.09931 48.669C1.09931 48.7186 1.09931 48.7186 1.14899 48.7683C1.7949 48.9669 2.4408 49.1656 3.0867 49.4636C3.4345 49.6125 3.78229 49.7615 4.13009 49.9602C5.32253 50.6058 5.76969 52.046 5.17347 53.2379C4.87536 53.8338 4.27914 54.2808 3.63324 54.4794H3.58355C3.53387 54.4794 3.53387 54.4794 3.48418 54.5291C4.82568 56.9625 6.56465 59.1477 8.65141 60.9852C13.8683 65.4548 20.6752 67.6399 27.5317 66.9446C28.8732 70.8183 30.6122 74.5429 32.7486 78.069L46.9088 76.5294C46.9585 76.3804 46.9585 76.1818 47.0082 76.0328C45.7164 76.2811 44.3749 76.3308 43.0831 76.2315C43.9774 74.8409 44.9214 73.4007 45.8157 72.0102C45.8157 71.9605 45.8654 71.9605 45.8654 71.9109C46.3126 71.2156 46.8094 70.4706 47.2566 69.7754C47.0082 67.6896 46.561 65.7031 45.8654 63.8159Z" fill="#F2F2F2"/>
<path d="M241.674 58.5516C244.307 59.2966 245.897 62.028 245.152 64.6601C245.052 64.9581 244.953 65.2064 244.854 65.5043L252.455 73.9469L248.431 79.807L237.848 67.7391C235.413 66.3983 234.569 63.3192 235.91 60.9354C237.053 58.8993 239.438 57.906 241.674 58.5516Z" fill="#A0616A"/>
<path d="M312.872 79.3104C309.991 74.6422 303.879 73.1523 299.209 76.0327C299.209 76.0327 299.209 76.0327 299.159 76.0327L274.168 91.5273L247.189 68.5834L240.481 74.8408L270.292 113.478L309.047 93.3151C308.102 93.8117 313.965 81.0982 312.872 79.3104Z" fill="#CCCCCC"/>
<path d="M263.336 130.81C263.336 182.707 221.253 224.821 169.333 224.821H169.283C117.312 224.821 75.2292 182.707 75.2292 130.81C75.2292 120.729 76.8192 110.697 80.0487 101.112C92.8674 62.7233 128.839 36.8493 169.333 36.7997C204.013 36.7997 235.91 55.87 252.257 86.4618C254.244 90.1865 255.983 94.0105 257.474 97.9338C257.672 98.4801 257.871 99.0264 258.07 99.5726C258.914 102.006 259.709 104.489 260.355 107.022C262.293 114.769 263.336 122.765 263.336 130.81Z" fill="#3F3D56"/>
<path d="M158.948 67.3418C150.403 62.7232 140.167 62.2763 131.224 66.1996C127.349 67.8881 123.275 70.9175 121.983 76.3803C127.2 73.3013 133.957 78.1682 135.298 85.9651L135 86.0644C134.305 91.4776 135.895 97.3874 138.925 100.715C139.323 97.2384 141.608 94.8546 143.894 93.3648C146.13 91.8749 148.664 90.7823 150.353 88.2496C152.39 85.2202 152.936 80.8003 153.731 76.7776C154.576 72.8047 156.116 68.484 158.948 67.3418Z" fill="white"/>
<path d="M129.734 113.428C128.293 115.614 126.355 116.954 124.616 118.643C122.877 120.331 121.237 122.666 120.89 125.596C120.691 127.483 120.989 129.42 120.939 131.307C120.89 133.194 120.244 135.379 118.952 135.826C116.915 136.571 115.325 132.747 113.238 132.499C111.549 132.3 110.058 134.932 110.555 137.217C111.052 139.501 113.338 140.494 114.629 139.004C115.822 140.991 114.977 144.616 113.189 145.212C112.99 146.454 112.791 147.695 112.642 148.986C108.121 145.858 103.599 142.63 99.7736 138.011C95.5007 132.946 92.8674 126.688 92.1718 120.083C91.675 114.769 92.4202 108.71 89.9857 104.638C88.048 101.36 84.6694 100.665 81.6883 100.864C81.1418 100.914 80.5952 100.963 80.0487 101.013C81.8374 95.699 84.0732 90.5341 86.8059 85.6176C87.4021 85.3693 87.9983 85.0217 88.4951 84.5747C91.2775 82.1909 92.5196 77.3737 94.8051 74.0463C94.9542 73.8477 95.1032 73.5994 95.2523 73.4007C97.5875 70.3713 100.668 68.7821 103.699 67.3419C110.356 64.1139 117.213 60.8362 124.268 61.2831L122.281 61.4818C119.946 68.0372 117.611 74.5429 115.275 81.0983C114.928 82.0916 114.58 83.0848 114.182 84.1277C112.841 87.8524 111.499 91.8254 111.698 95.9473C111.797 98.4304 112.692 101.063 114.282 101.907C115.822 102.701 117.461 101.708 118.952 100.765C119.598 100.367 120.194 99.97 120.79 99.5727C123.026 98.1325 125.51 96.6426 127.846 97.6358C129.982 98.5298 131.622 101.46 131.92 104.589C132.118 107.767 131.373 110.796 129.734 113.428Z" fill="white"/>
<path d="M143 158.075C136.491 154.052 129.982 150.029 123.473 146.056L123.573 145.758C119.499 147.298 117.859 154.499 118.505 160.409C119.151 166.319 121.436 171.583 122.579 177.294C124.119 185.141 123.523 193.285 120.89 200.834C129.436 191.199 137.037 180.77 143.546 169.646C144.44 168.255 145.136 166.716 145.583 165.127C145.981 163.438 145.931 161.352 145.086 160.011C144.54 159.167 143.844 158.522 143 158.075Z" fill="white"/>
<path d="M117.263 85.1209C116.567 86.6605 116.319 88.7463 116.915 90.3355C117.561 91.9743 118.902 92.7192 120.144 93.3152L123.722 95.103C124.914 95.699 126.206 96.2949 127.448 95.7983C128.939 95.2023 129.932 92.9179 129.684 90.7824C129.386 88.498 127.945 86.9584 126.653 85.6176C124.815 83.7304 122.927 81.8929 121.088 80.0057L120.045 81.2969C118.902 82.3895 117.958 83.6807 117.263 85.1209Z" fill="white"/>
<path d="M244.009 109.455C245.649 109.853 247.238 110.2 248.878 110.598C248.58 116.06 245.897 121.126 242.27 122.963C240.779 123.708 239.09 124.006 237.798 125.447C236.656 126.738 236.109 128.774 235.563 130.661C234.618 134.038 233.724 137.365 232.78 140.743C231.786 144.368 230.495 148.39 227.911 149.682C225.675 150.824 223.141 149.433 221.452 147.149C219.763 144.864 218.719 141.736 217.676 138.706C217.726 141.984 216.185 145.212 214.049 146.354C211.863 147.497 209.23 146.454 207.789 143.921C206.745 142.083 206.298 139.65 205.304 137.812C204.261 135.975 202.125 134.882 201.031 136.621C200.286 137.763 200.386 139.551 200.038 141.04C199.491 143.325 197.752 144.765 196.013 144.914C194.324 145.063 192.635 144.07 191.244 142.729C188.312 139.948 186.126 135.578 185.281 130.711C184.934 128.526 184.785 126.191 185.43 124.155C186.076 122.119 187.617 120.58 189.157 120.927C190.15 118.792 188.163 115.961 186.374 116.209C184.586 116.458 183.145 118.395 181.654 119.884C180.164 121.374 178.127 122.467 176.636 120.977C176.636 122.368 175.543 123.261 174.549 123.162C173.605 123.063 172.711 122.268 171.866 121.722C168.438 119.586 164.116 121.027 161.681 125.049C163.172 118.593 165.407 111.194 170.078 109.704C171.966 109.058 174.053 109.604 175.841 108.512C179.021 106.625 179.667 99.4236 176.934 96.4439C177.282 99.2746 177.232 102.552 175.742 104.439C174.251 106.376 171.121 105.085 171.32 102.254C170.873 104.191 168.736 104.489 167.792 102.999C166.799 101.509 166.898 99.0263 167.594 97.2385C168.289 95.4506 169.482 94.1594 170.624 92.9179C173.109 90.2361 175.643 87.5544 178.475 85.9155C181.356 84.227 184.685 83.6807 187.567 85.3196C189.107 86.2135 190.449 87.6537 191.989 88.4483C193.529 89.2429 195.516 89.1435 196.56 87.306C197.703 85.2699 197.156 82.2902 197.603 79.7574C198.349 75.2878 202.87 73.202 205.354 76.1321C203.516 75.6354 201.578 77.8702 201.33 80.5023C201.081 83.1841 202.423 85.8658 204.211 86.6604C207.242 88.0013 210.174 84.6243 212.459 81.5452C214.844 78.2675 217.229 75.0395 219.614 71.7618C220.011 71.2155 220.409 70.6692 220.905 70.2223C222.446 68.7324 224.93 68.6827 226.52 70.1229C228.954 72.1094 230.047 76.1321 232.035 78.9131C234.917 82.9358 239.19 83.929 243.214 84.7236C246.195 85.3196 249.176 85.8658 252.157 86.4618C254.145 90.1865 255.884 94.0104 257.374 97.9337C252.356 100.069 247.686 104.092 244.009 109.455Z" fill="white"/>
<path d="M253.648 172.328C251.412 176.847 248.828 181.217 245.847 185.339C243.959 184.545 241.922 185.985 240.183 187.326C238.345 188.716 236.109 190.107 234.271 188.815C232.333 187.475 231.737 183.8 232.333 180.919C232.929 177.989 234.469 175.705 235.96 173.47C237.55 171.136 239.19 168.702 241.376 167.808C243.562 166.914 246.344 168.206 246.99 171.285L248.53 171.235C247.686 170.043 248.133 167.56 249.276 167.163C250.617 166.666 251.76 168.504 252.555 170.143C252.952 170.838 253.3 171.583 253.648 172.328Z" fill="white"/>
<path d="M194.423 150.278C191.095 150.476 188.461 146.404 186.722 142.381C184.983 138.359 183.393 133.74 180.363 131.704C178.673 130.512 176.686 130.363 174.848 129.817C173.009 129.271 171.022 128.079 170.177 125.695L168.09 124.851C165.308 126.44 162.476 128.029 160.091 130.562C157.408 133.442 155.719 137.067 155.321 140.991C154.924 145.212 156.414 149.93 159.197 151.519C161.383 152.761 163.967 151.966 166.153 153.108C168.935 154.549 170.575 158.72 171.221 162.792C171.866 166.865 171.668 171.185 172.115 175.307C172.562 179.429 173.804 183.8 176.338 185.935C179.518 188.617 184.188 186.382 185.629 181.515C186.325 179.131 186.325 176.45 186.822 173.966C187.766 169.596 190.25 166.368 192.237 162.842C194.175 159.266 195.715 154.4 194.423 150.278Z" fill="white"/>
<path d="M161.582 107.518C161.88 107.816 162.178 108.114 162.426 108.412C162.973 109.356 162.973 110.598 162.377 111.541C163.172 111.491 163.917 111.094 164.463 110.498C165.06 109.803 165.606 109.058 166.053 108.263C166.401 107.717 166.749 106.972 166.501 106.327C166.351 105.88 165.954 105.681 165.706 105.333C165.308 104.787 165.209 103.943 164.96 103.198C164.513 101.609 163.37 100.466 162.178 100.268L162.327 100.317C161.83 100.466 161.482 101.261 161.582 102.006C161.681 102.652 162.079 103.198 162.079 103.844C162.029 104.787 161.085 105.234 160.985 106.227C161.085 106.724 161.234 107.171 161.582 107.518Z" fill="white"/>
<path d="M155.868 91.2791C155.967 91.1797 156.067 91.0804 156.166 90.9811L155.868 91.2791Z" fill="#E6E6E6"/>
<path d="M156.862 95.7486C157.607 95.252 158.004 93.9608 157.756 92.8682C157.508 91.7756 156.663 91.0307 155.868 91.2294C155.421 91.6763 154.725 91.875 154.079 91.7757C153.582 91.6267 153.036 91.3287 152.638 91.6763C152.39 91.9743 152.241 92.2723 152.142 92.6199C151.993 93.1165 151.843 93.5635 151.694 94.0601C151.645 94.2091 151.595 94.4077 151.645 94.6064C151.694 94.7554 151.843 94.8547 151.993 94.9044C152.937 95.2023 153.881 95.4507 154.825 95.7486C155.52 95.9969 156.216 96.1459 156.862 95.7486Z" fill="white"/>
<path d="M227.762 157.727C227.315 157.032 226.917 156.287 226.47 155.592C226.023 154.747 225.476 154.052 224.731 153.456C224.085 152.91 223.141 153.009 222.595 153.655C222.595 153.655 222.595 153.655 222.595 153.704L222.644 154.102C223.638 155.343 224.682 156.734 224.93 158.571C225.029 159.316 224.98 160.061 225.079 160.756C225.178 161.452 225.427 162.246 225.874 162.544C226.57 162.991 227.365 162.346 227.861 161.501C228.309 160.806 228.507 160.011 228.408 159.217C228.259 158.671 228.06 158.174 227.762 157.727Z" fill="white"/>
<path d="M247.089 130.562C247.238 129.717 247.338 128.923 247.487 128.079C247.686 127.185 247.735 126.241 247.586 125.347C247.437 124.503 246.642 123.957 245.847 124.106C245.847 124.106 245.847 124.106 245.798 124.106L245.599 124.453C245.549 126.042 245.45 127.781 244.456 129.32C244.059 129.916 243.562 130.512 243.164 131.108C242.767 131.704 242.469 132.449 242.618 132.995C242.866 133.79 243.91 133.79 244.804 133.492C245.549 133.244 246.245 132.747 246.692 132.101C246.841 131.654 247.04 131.108 247.089 130.562Z" fill="#E6E6E6"/>
<path d="M234.569 158.621C234.768 158.025 234.469 157.33 234.42 156.634C234.37 155.74 234.619 154.896 235.066 154.151C235.513 153.456 235.861 152.711 236.109 151.867C236.208 151.519 236.208 151.122 236.059 150.774C235.91 150.476 235.563 150.327 235.364 150.576L235.811 150.874C235.215 150.774 234.619 150.824 234.072 150.973C233.426 151.221 232.929 151.767 232.78 152.463C232.731 152.959 232.581 153.506 232.432 154.002C232.184 154.549 231.687 154.698 231.389 155.144C230.942 155.989 230.992 156.982 231.439 157.777C231.836 158.422 232.432 158.919 233.178 159.117C233.625 159.316 234.32 159.316 234.569 158.621Z" fill="white"/>
<path d="M246.692 162.296C246.891 162.793 247.139 163.239 247.437 163.686C248.033 164.282 248.828 163.935 249.524 163.786C250.816 163.587 252.157 164.084 252.952 165.176C252.406 162.395 250.518 160.111 247.984 158.969C246.344 158.273 244.555 158.224 242.866 158.174L242.568 158.273C243.264 160.359 245.649 160.309 246.692 162.296Z" fill="white"/>
<path d="M195.318 166.815C195.367 166.765 195.367 166.716 195.417 166.666L195.318 166.815Z" fill="#E6E6E6"/>
<path d="M193.479 170.391C193.082 171.136 192.734 171.881 192.436 172.675C192.039 173.917 191.79 175.258 191.691 176.549C191.591 177.294 191.591 178.237 192.039 178.635C192.337 178.833 192.684 178.784 192.883 178.535C193.132 178.237 193.38 177.939 193.529 177.592C194.473 176.003 195.169 174.314 195.666 172.526C196.113 170.689 196.113 168.454 195.318 166.865C194.722 168.007 194.125 169.199 193.479 170.391Z" fill="white"/>
<path d="M175.742 75.5361C176.338 76.132 177.232 76.281 177.978 75.983C178.773 75.6354 179.468 75.1884 180.114 74.5925C180.611 74.1952 181.058 73.7482 181.406 73.2019C181.803 72.5563 181.853 71.7617 181.654 71.0168C181.356 70.1726 180.611 69.8746 179.965 69.6759C178.922 69.378 177.878 69.08 176.835 68.7324L177.58 68.0371C176.785 67.6398 175.941 68.3847 175.444 69.3283C175.146 69.9739 174.897 70.6195 174.798 71.3148C174.599 72.904 174.848 74.6918 175.742 75.5361Z" fill="#E6E6E6"/>
<path d="M194.125 69.378C194.721 70.0732 195.765 70.1229 196.46 69.5766C197.057 69.1297 197.454 68.4344 197.504 67.6895C197.554 66.8949 197.156 65.9513 196.61 65.9016L196.759 65.1567C195.665 64.958 194.274 64.9084 193.678 66.2492C193.281 67.2922 193.43 68.484 194.125 69.378Z" fill="#E6E6E6"/>
<path d="M191.691 28.6054C178.077 27.0658 165.805 36.8493 164.265 50.4567C162.724 64.0641 169.879 93.6131 182.996 105.83C189.157 82.3895 210.72 68.4841 213.602 56.0189C216.633 42.6597 205.304 30.1449 191.691 28.6054Z" fill="#22335F"/>
<path d="M187.169 58.8497C191.642 58.8497 195.268 55.2254 195.268 50.7547C195.268 46.284 191.642 42.6598 187.169 42.6598C182.697 42.6598 179.071 46.284 179.071 50.7547C179.071 55.2254 182.697 58.8497 187.169 58.8497Z" fill="white"/>
<path d="M178.673 117.501C181.609 117.501 183.99 115.122 183.99 112.187C183.99 109.252 181.609 106.873 178.673 106.873C175.737 106.873 173.357 109.252 173.357 112.187C173.357 115.122 175.737 117.501 178.673 117.501Z" fill="#22335F"/>
<path opacity="0.2" d="M193.877 44.9443C197.703 47.2288 198.945 52.195 196.659 56.019C194.374 59.8429 189.405 61.0845 185.579 58.8C189.952 59.7933 194.274 57.0122 195.218 52.6419C195.964 49.2649 194.473 45.7389 191.492 43.951C192.287 44.1994 193.132 44.4973 193.877 44.9443Z" fill="#231F20"/>
<path opacity="0.2" d="M213.602 56.0189C210.77 68.5337 189.157 82.3895 182.996 105.83C181.754 104.688 180.611 103.397 179.568 102.105C186.474 80.0553 206.696 66.6962 209.478 54.6283C211.962 43.802 205.006 33.5716 195.069 29.2013C207.143 32.2803 216.384 43.802 213.602 56.0189Z" fill="#231F20"/>
<path d="M115.872 60.1409C105.636 58.9987 96.4447 66.3487 95.2523 76.5791C94.1095 86.8095 99.4755 109.008 109.313 118.196C113.934 100.616 130.131 90.1369 132.268 80.8004C134.603 70.719 126.107 61.2831 115.872 60.1409Z" fill="#22335F"/>
<path d="M112.493 82.8364C115.841 82.8364 118.555 80.1238 118.555 76.7777C118.555 73.4315 115.841 70.7189 112.493 70.7189C109.145 70.7189 106.431 73.4315 106.431 76.7777C106.431 80.1238 109.145 82.8364 112.493 82.8364Z" fill="white"/>
<path d="M106.084 126.887C108.279 126.887 110.058 125.108 110.058 122.914C110.058 120.72 108.279 118.941 106.084 118.941C103.888 118.941 102.109 120.72 102.109 122.914C102.109 125.108 103.888 126.887 106.084 126.887Z" fill="#22335F"/>
<path opacity="0.2" d="M117.511 72.4571C120.393 74.1953 121.337 77.9199 119.598 80.8003C117.859 83.6807 114.133 84.6243 111.251 82.8862C114.53 83.6311 117.76 81.5453 118.505 78.2676C119.051 75.7348 117.958 73.1027 115.722 71.7618C116.319 71.8612 116.965 72.1095 117.511 72.4571Z" fill="#231F20"/>
<path opacity="0.2" d="M132.317 80.7506C130.181 90.1367 113.984 100.566 109.363 118.146C108.419 117.252 107.574 116.358 106.779 115.315C111.996 98.778 127.15 88.6965 129.237 79.658C131.075 71.5631 125.908 63.8158 118.405 60.5878C127.448 62.8722 134.404 71.5631 132.317 80.7506Z" fill="#231F20"/>
<path d="M306.065 280.144H299.408L296.228 254.419H306.065V280.144Z" fill="#A0616A"/>
<path d="M309.692 292.758H304.972L304.128 288.289L301.942 292.758H289.371C287.831 292.758 286.539 291.517 286.539 289.928C286.539 288.984 286.986 288.14 287.781 287.593L297.818 280.69V276.171L308.351 276.817L309.692 292.758Z" fill="#2F2E41"/>
<path d="M280.229 280.144H273.572L270.392 254.419H280.229V280.144Z" fill="#A0616A"/>
<path d="M283.856 292.758H279.136L278.292 288.289L276.105 292.758H263.535C261.995 292.758 260.703 291.517 260.703 289.928C260.703 288.984 261.15 288.14 261.945 287.593L271.982 280.69V276.171L282.515 276.817L283.856 292.758Z" fill="#2F2E41"/>
<path d="M254.89 212.206C256.182 214.143 270.044 266.735 270.044 266.735L282.366 268.126L280.925 254.866L278.689 231.426L275.211 215.782C275.211 215.782 287.434 187.971 288.179 185.786L288.725 184.197L292.551 218.811C292.998 220.053 293.197 221.344 293.147 222.685C293.048 224.87 295.184 257.399 295.184 257.399L296.228 269.069L306.761 270.51L311.034 250.297C314.611 243.742 312.574 220.45 311.084 218.265C309.593 216.08 310.189 200.983 310.189 200.983C312.077 200.337 323.207 162.395 317.642 162.594C317.99 160.558 318.288 158.77 318.288 158.77L308.649 150.973L284.452 144.666L278.341 141.736C278.341 141.736 267.46 161.899 267.56 162.892C267.709 164.183 267.411 165.425 266.715 166.517L255.735 203.317C255.784 203.466 253.598 210.269 254.89 212.206Z" fill="#2F2E41"/>
<path d="M315.655 80.5024L311.829 72.3578L298.712 72.8544L294.439 81.3466C294.439 81.3466 282.217 95.8976 281.819 100.665C281.322 106.625 285.446 135.826 281.322 133.939C281.322 133.939 271.584 145.361 277.348 145.361C283.111 145.361 309.146 161.7 310.885 163.537C312.624 165.375 320.226 166.567 319.58 162.743C318.934 158.919 315.655 138.16 315.655 138.16L324.598 105.532C327.181 98.4801 327.976 90.5838 322.163 85.8659L315.655 80.5024Z" fill="#CCCCCC"/>
<path d="M267.162 56.5155C259.809 53.5855 251.462 57.2108 248.53 64.5608C245.599 71.9108 245.102 89.4912 250.567 98.331C257.573 86.1638 271.733 81.6942 275.211 75.1388C278.937 68.1365 274.515 59.3959 267.162 56.5155Z" fill="#22335F"/>
<path d="M261.25 72.8543C263.829 72.8543 265.92 70.7643 265.92 68.1861C265.92 65.6079 263.829 63.5178 261.25 63.5178C258.67 63.5178 256.579 65.6079 256.579 68.1861C256.579 70.7643 258.67 72.8543 261.25 72.8543Z" fill="white"/>
<path d="M247.189 104.291C248.89 104.291 250.269 102.912 250.269 101.211C250.269 99.511 248.89 98.1324 247.189 98.1324C245.488 98.1324 244.108 99.511 244.108 101.211C244.108 102.912 245.488 104.291 247.189 104.291Z" fill="#22335F"/>
<path opacity="0.2" d="M265.87 65.9513C267.659 67.8385 267.609 70.7685 265.721 72.5564C263.833 74.3442 260.902 74.2945 259.113 72.4074C261.399 73.5993 264.231 72.755 265.423 70.4705C266.367 68.6827 266.069 66.4976 264.678 65.0574C265.125 65.3057 265.523 65.6037 265.87 65.9513Z" fill="#231F20"/>
<path opacity="0.2" d="M275.211 75.1388C271.733 81.6942 257.573 86.1638 250.567 98.331C250.071 97.4868 249.623 96.6425 249.226 95.7486C256.43 84.5249 269.746 80.105 273.124 73.7979C276.155 68.1364 273.82 61.3824 268.951 57.4094C275.211 60.8858 278.639 68.7324 275.211 75.1388Z" fill="#231F20"/>
<path d="M245.798 100.119C248.481 99.5725 251.114 101.311 251.66 103.992C251.71 104.29 251.76 104.588 251.76 104.886L262.392 108.959L261.498 116.011L246.593 110.051C243.81 109.952 241.674 107.618 241.773 104.837C241.873 102.552 243.562 100.566 245.798 100.119Z" fill="#A0616A"/>
<path d="M319.977 85.6175C315.307 82.7371 309.146 84.227 306.314 88.9449C306.314 88.9449 306.314 88.9449 306.314 88.9945L291.061 114.124L256.629 105.979L253.499 114.571L297.619 135.478L319.977 99.9202C323.256 95.1526 324.896 88.5972 319.977 85.6175Z" fill="#CCCCCC"/>
<path d="M320.573 54.7773C320.573 62.9716 313.965 69.5766 305.767 69.5766C297.569 69.5766 290.961 62.9716 290.961 54.7773C290.961 50.9533 292.452 47.2783 295.135 44.4972L295.184 44.4476C295.284 44.2986 295.433 44.1993 295.532 44.0999C295.681 43.951 295.83 43.802 295.979 43.7026C302.14 38.2895 311.481 38.9351 316.897 45.0932C319.232 47.7253 320.573 51.2016 320.573 54.7773Z" fill="#2F2E41"/>
<path d="M302.091 70.6195C308.951 70.6195 314.512 65.0609 314.512 58.204C314.512 51.3471 308.951 45.7885 302.091 45.7885C295.231 45.7885 289.669 51.3471 289.669 58.204C289.669 65.0609 295.231 70.6195 302.091 70.6195Z" fill="#9E616A"/>
<path d="M315.307 61.7301L313.27 61.3825C310.935 60.9355 309.096 59.098 308.649 56.7639L306.662 60.1409L306.562 60.1906C301.793 61.7798 296.774 61.2831 291.359 58.7504C289.818 58.0054 288.278 57.1612 286.837 56.2673L286.738 56.2176V56.0686C286.44 52.046 287.384 48.669 289.272 46.5831C290.762 44.994 292.849 44.1 295.035 44.1994C295.135 44.1994 295.184 44.1497 295.234 44.1C295.284 44.1 295.284 44.0504 295.334 44.0504L295.483 44.0007C295.781 43.8517 296.079 43.7027 296.427 43.6034C301.445 41.6666 307.109 42.7592 311.034 46.4342C314.86 50.1092 316.599 56.2176 315.406 61.6804L315.307 61.7301Z" fill="#2F2E41"/>
<path d="M341.491 72.3081C337.268 70.123 342.683 62.2267 341.59 57.5585C340.497 52.9399 332.647 51.45 332.15 46.7321C331.653 42.0142 330.461 37.1473 327.331 33.522C325.343 31.2375 322.412 29.549 319.381 29.847C315.456 30.2443 312.574 33.7206 312.922 37.644C312.972 37.9916 313.021 38.3392 313.121 38.6869C312.276 37.4453 310.04 37.7433 309.494 39.1338C308.997 40.3754 310.09 41.8652 311.382 41.9646C313.071 44.0007 314.959 46.2355 317.592 46.6328C318.437 46.8315 319.331 46.6328 319.977 46.0865C320.573 45.4906 320.623 44.2987 319.928 43.8517C323.207 45.1429 325.144 48.7186 325.641 52.195C326.138 55.721 325.443 59.247 324.995 62.7233C324.548 66.1997 324.349 69.9243 325.741 73.202C327.38 77.026 331.107 79.8071 335.181 80.701C339.255 81.5949 343.627 80.701 347.304 78.7642C350.981 76.8274 354.061 73.8477 356.595 70.5203C352.223 73.5993 346.211 74.7416 341.491 72.3081Z" fill="#2F2E41"/>
<path d="M314.76 61.3824C314.76 61.3824 311.084 47.626 295.284 44.4973C295.284 44.4973 295.184 44.4476 295.135 44.4476C295.085 44.3979 295.035 44.3979 294.986 44.3483C295.184 44.2489 295.333 44.1496 295.532 44.0503C295.681 43.9013 295.83 43.7523 295.979 43.653H296.427C296.427 43.653 312.276 41.1699 314.76 61.3824Z" fill="#F1D00B"/>
<path opacity="0.2" d="M306.513 105.482L297.619 115.762L282.863 111.442L298.911 118.842L306.513 105.482Z" fill="black"/>
<path d="M360.023 293.553L222.992 293.702C222.644 293.702 222.396 293.454 222.396 293.106C222.396 292.758 222.644 292.51 222.992 292.51L360.023 292.361C360.371 292.361 360.619 292.609 360.619 292.957C360.619 293.305 360.321 293.553 360.023 293.553Z" fill="#CACACA"/>
<path d="M366.035 201.678C359.626 201.678 352.571 201.43 344.919 200.933C305.37 198.4 254.145 189.709 200.634 176.35C147.173 162.991 97.8359 146.652 61.715 130.313C44.1265 122.368 30.6122 114.819 21.6192 107.916C12.0797 100.615 7.85651 94.2091 9.198 88.9449C11.7319 78.7145 34.3883 76.4797 52.9704 76.3804V77.8702C27.4821 77.9696 12.4772 82.0419 10.6389 89.2925C8.30367 98.5297 27.1839 112.981 62.3609 128.923C98.3824 145.262 147.62 161.551 201.031 174.91C254.393 188.22 305.569 196.96 345.018 199.443C383.574 201.877 406.975 198.003 409.311 188.716C411.248 181.019 398.579 169.696 373.687 156.833L374.382 155.492C392.468 164.829 413.435 178.287 410.752 189.064C409.46 194.328 402.752 198.003 390.878 199.94C384.12 201.082 375.773 201.678 366.035 201.678Z" fill="#22335F"/>
</svg>
