<svg width="115" height="41" viewBox="0 0 115 41" fill="none" xmlns="http://www.w3.org/2000/svg">
<rect width="115" height="41" rx="20.5" fill="#3F4A7B"/>
<path d="M17.342 11.676H21.522V28H17.342V11.676ZM24.2385 16.076H28.4185V28H24.2385V16.076ZM26.3285 14.756C25.5658 14.756 24.9498 14.5433 24.4805 14.118C24.0112 13.6927 23.7765 13.1647 23.7765 12.534C23.7765 11.9033 24.0112 11.3753 24.4805 10.95C24.9498 10.5247 25.5658 10.312 26.3285 10.312C27.0912 10.312 27.7072 10.5173 28.1765 10.928C28.6458 11.324 28.8805 11.8373 28.8805 12.468C28.8805 13.128 28.6458 13.678 28.1765 14.118C27.7072 14.5433 27.0912 14.756 26.3285 14.756ZM38.637 15.878C39.7223 15.878 40.705 16.1273 41.585 16.626C42.4796 17.1247 43.1836 17.8433 43.697 18.782C44.225 19.706 44.489 20.784 44.489 22.016C44.489 23.248 44.225 24.3333 43.697 25.272C43.1836 26.2107 42.4796 26.9367 41.585 27.45C40.705 27.9487 39.7223 28.198 38.637 28.198C37.0676 28.198 35.8943 27.736 35.117 26.812V28H31.135V11.676H35.315V17.11C36.1216 16.2887 37.229 15.878 38.637 15.878ZM37.757 24.876C38.4903 24.876 39.0916 24.6267 39.561 24.128C40.0303 23.6147 40.265 22.9107 40.265 22.016C40.265 21.136 40.0303 20.4467 39.561 19.948C39.0916 19.4493 38.4903 19.2 37.757 19.2C37.0236 19.2 36.4223 19.4493 35.953 19.948C35.4836 20.4467 35.249 21.136 35.249 22.016C35.249 22.9107 35.4836 23.6147 35.953 24.128C36.4223 24.6267 37.0236 24.876 37.757 24.876ZM58.9718 16.076V28H54.9898V26.724C54.5498 27.208 54.0218 27.5747 53.4058 27.824C52.7898 28.0733 52.1372 28.198 51.4478 28.198C49.9078 28.198 48.6758 27.7433 47.7518 26.834C46.8425 25.9247 46.3878 24.5607 46.3878 22.742V16.076H50.5678V22.06C50.5678 22.9547 50.7365 23.6073 51.0738 24.018C51.4112 24.4287 51.9025 24.634 52.5478 24.634C53.2078 24.634 53.7432 24.4067 54.1538 23.952C54.5792 23.4827 54.7918 22.7713 54.7918 21.818V16.076H58.9718ZM65.6463 17.506C66.0716 16.9633 66.6216 16.56 67.2963 16.296C67.9856 16.0173 68.7703 15.878 69.6503 15.878V19.64C69.2689 19.596 68.9536 19.574 68.7043 19.574C67.8096 19.574 67.1056 19.816 66.5923 20.3C66.0936 20.784 65.8443 21.5247 65.8443 22.522V28H61.6643V16.076H65.6463V17.506Z" fill="white"/>
<path d="M73.1782 28.198C72.4742 28.198 71.8802 27.9633 71.3962 27.494C70.9122 27.0247 70.6702 26.4307 70.6702 25.712C70.6702 24.9787 70.9048 24.3847 71.3742 23.93C71.8582 23.4753 72.4595 23.248 73.1782 23.248C73.9115 23.248 74.5128 23.4753 74.9822 23.93C75.4515 24.3847 75.6862 24.9787 75.6862 25.712C75.6862 26.4307 75.4442 27.0247 74.9602 27.494C74.4908 27.9633 73.8968 28.198 73.1782 28.198ZM77.6486 16.076H81.8286V28H77.6486V16.076ZM79.7386 14.756C78.976 14.756 78.36 14.5433 77.8906 14.118C77.4213 13.6927 77.1866 13.1647 77.1866 12.534C77.1866 11.9033 77.4213 11.3753 77.8906 10.95C78.36 10.5247 78.976 10.312 79.7386 10.312C80.5013 10.312 81.1173 10.5173 81.5866 10.928C82.056 11.324 82.2906 11.8373 82.2906 12.468C82.2906 13.128 82.056 13.678 81.5866 14.118C81.1173 14.5433 80.5013 14.756 79.7386 14.756ZM92.3111 15.878C93.7925 15.878 94.9805 16.318 95.8751 17.198C96.7845 18.078 97.2391 19.4053 97.2391 21.18V28H93.0591V21.862C93.0591 20.234 92.4065 19.42 91.1011 19.42C90.3825 19.42 89.8031 19.6547 89.3631 20.124C88.9378 20.5933 88.7251 21.2973 88.7251 22.236V28H84.5451V16.076H88.5271V17.374C88.9965 16.89 89.5538 16.5233 90.1991 16.274C90.8445 16.01 91.5485 15.878 92.3111 15.878Z" fill="#F1D00B"/>
</svg>
